<svg xmlns="http://www.w3.org/2000/svg" xmlns:xlink="http://www.w3.org/1999/xlink" width="110" height="110" viewBox="0 0 110 110">
  <defs>
    <filter id="Trazado_982547" x="0" y="0" width="110" height="110" filterUnits="userSpaceOnUse">
      <feOffset dy="3" input="SourceAlpha"/>
      <feGaussianBlur stdDeviation="3" result="blur"/>
      <feFlood flood-opacity="0.161"/>
      <feComposite operator="in" in2="blur"/>
      <feComposite in="SourceGraphic"/>
    </filter>
  </defs>
  <g id="Grupo_1166613" data-name="Grupo 1166613" transform="translate(-1217.19 -1957.205)">
    <g id="Grupo_1166452" data-name="Grupo 1166452" transform="translate(105.19 -2.795)">
      <g id="Grupo_1164700" data-name="Grupo 1164700" transform="translate(1121 1966)">
        <g id="Grupo_1160931" data-name="Grupo 1160931" transform="translate(0)">
          <g id="Grupo_1160749" data-name="Grupo 1160749" transform="translate(0)">
            <g id="Grupo_1158891" data-name="Grupo 1158891" transform="translate(0 0)">
              <g id="Grupo_1157406" data-name="Grupo 1157406" transform="translate(0)">
                <g id="Grupo_1155793" data-name="Grupo 1155793" transform="translate(0)">
                  <g id="Grupo_1154704" data-name="Grupo 1154704" transform="translate(0)">
                    <g id="Grupo_1150790" data-name="Grupo 1150790" transform="translate(0)">
                      <g id="Grupo_1154214" data-name="Grupo 1154214" transform="translate(0)">
                        <g id="Grupo_1152583" data-name="Grupo 1152583" transform="translate(0 0)">
                          <g id="Grupo_1146973" data-name="Grupo 1146973" transform="translate(0 0)">
                            <g id="Grupo_1146954" data-name="Grupo 1146954">
                              <g transform="matrix(1, 0, 0, 1, -9, -6)" filter="url(#Trazado_982547)">
                                <g id="Trazado_982547-2" data-name="Trazado 982547" transform="translate(9 6)" fill="#fcebe9">
                                  <path d="M 46.00000381469727 90.49988555908203 C 39.99188232421875 90.49988555908203 34.16427230834961 89.32352447509766 28.67905807495117 87.00347137451172 C 23.38020324707031 84.76226043701172 18.62104415893555 81.55342864990234 14.53375053405762 77.46615600585938 C 10.44647026062012 73.37887573242188 7.237643718719482 68.61971282958984 4.996417045593262 63.32085800170898 C 2.676363706588745 57.83565902709961 1.500003814697266 52.00806045532227 1.500003814697266 45.99993896484375 C 1.500003814697266 39.99181747436523 2.676363706588745 34.16421890258789 4.996417045593262 28.67901802062988 C 7.237643718719482 23.38017845153809 10.44647026062012 18.62101936340332 14.53375053405762 14.53373908996582 C 18.62104415893555 10.44645881652832 23.38020324707031 7.237632274627686 28.67905807495117 4.996418952941895 C 34.16427230834961 2.676365613937378 39.99188232421875 1.500005602836609 46.00000381469727 1.500005602836609 C 52.00812530517578 1.500005602836609 57.83573532104492 2.676365613937378 63.32094955444336 4.996418952941895 C 68.61980438232422 7.237632274627686 73.37897491455078 10.44645881652832 77.46625518798828 14.53373908996582 C 81.55355072021484 18.62101936340332 84.76236724853516 23.38017845153809 87.00359344482422 28.67901802062988 C 89.32364654541016 34.16421890258789 90.5 39.99181747436523 90.5 45.99993896484375 C 90.5 52.00806045532227 89.32364654541016 57.83565902709961 87.00359344482422 63.32085800170898 C 84.76236724853516 68.61971282958984 81.55355072021484 73.37887573242188 77.46625518798828 77.46615600585938 C 73.37897491455078 81.55342864990234 68.61980438232422 84.76226043701172 63.32094955444336 87.00347137451172 C 57.83573532104492 89.32352447509766 52.00812530517578 90.49988555908203 46.00000381469727 90.49988555908203 Z" stroke="none"/>
                                  <path d="M 46.00000381469727 2.999992370605469 C 40.19371795654297 2.999992370605469 34.56270217895508 4.136497497558594 29.26338958740234 6.377906799316406 C 24.14333343505859 8.543510437011719 19.54441833496094 11.64437866210938 15.59440612792969 15.59439849853516 C 11.64440155029297 19.54439544677734 8.54351806640625 24.14329528808594 6.377914428710938 29.26335144042969 C 4.136505126953125 34.56266784667969 3.000007629394531 40.19366836547852 3.000007629394531 45.99993896484375 C 3.000007629394531 51.80620956420898 4.136505126953125 57.43722534179688 6.377914428710938 62.73654174804688 C 8.54351806640625 67.85658264160156 11.64440155029297 72.45548248291016 15.59440612792969 76.40549468994141 C 19.54441833496094 80.35549926757812 24.14333343505859 83.45636749267578 29.26337432861328 85.62196350097656 C 34.56270217895508 87.86338043212891 40.19371795654297 88.9998779296875 46.00000381469727 88.9998779296875 C 51.80628967285156 88.9998779296875 57.43730545043945 87.86338043212891 62.73663330078125 85.62196350097656 C 67.85667419433594 83.45636749267578 72.45558929443359 80.35549926757812 76.40560150146484 76.40549468994141 C 80.35560607910156 72.45548248291016 83.45648956298828 67.85658264160156 85.62208557128906 62.73654174804688 C 87.86350250244141 57.43722534179688 89 51.80620956420898 89 45.99993896484375 C 89 40.19366836547852 87.86350250244141 34.56266784667969 85.62208557128906 29.26335144042969 C 83.45648956298828 24.14329528808594 80.35560607910156 19.54439544677734 76.40560150146484 15.59439849853516 C 72.45558929443359 11.64437866210938 67.85667419433594 8.543510437011719 62.73661804199219 6.377906799316406 C 57.43730545043945 4.136497497558594 51.80628967285156 2.999992370605469 46.00000381469727 2.999992370605469 M 46.00000381469727 -7.62939453125e-06 C 71.40510559082031 -7.62939453125e-06 92 20.59487915039062 92 45.99993896484375 C 92 71.40501403808594 71.40510559082031 91.99988555908203 46.00000381469727 91.99988555908203 C 20.59490203857422 91.99988555908203 7.62939453125e-06 71.40501403808594 7.62939453125e-06 45.99993896484375 C 7.62939453125e-06 20.59487915039062 20.59490203857422 -7.62939453125e-06 46.00000381469727 -7.62939453125e-06 Z" stroke="none" fill="#e44b36"/>
                                </g>
                              </g>
                            </g>
                          </g>
                        </g>
                      </g>
                    </g>
                  </g>
                </g>
              </g>
            </g>
          </g>
        </g>
      </g>
    </g>
    <g id="Layer_x0020_1" transform="translate(1241.878 1957.47)">
      <path id="Trazado_1023145" data-name="Trazado 1023145" d="M46.254,55.647H41.446a.825.825,0,0,1-.825-.825v-5.71H35.044a.825.825,0,0,1-.825-.825V43.381a.825.825,0,0,1,.825-.824h5.578v-5.71a.825.825,0,0,1,.825-.825h4.808a.825.825,0,0,1,.825.825v5.71h5.577a.825.825,0,0,1,.825.825v4.907a.825.825,0,0,1-.825.825H47.078v5.71a.825.825,0,0,1-.825.825ZM23.2,83.96a.825.825,0,0,1-.409-.108A51.859,51.859,0,0,1,10.427,73.2C2.888,64.365-.925,53.726.426,42.22A.825.825,0,0,1,.832,41.6l7.947-4.588a.825.825,0,0,1,1.127.3L16.649,49a.825.825,0,0,1-.3,1.126c-12.289,7.1-3.387,22.927,9.309,15.592a.825.825,0,0,1,1.126.3L33.3,77.306a.825.825,0,0,1-.3,1.127L23.612,83.85a.823.823,0,0,1-.412.111ZM2.018,42.822C.885,53.406,4.124,63.252,11.647,72.091A52.315,52.315,0,0,0,23.209,82.178l8.247-4.761-5.7-9.869C11.8,74.824,1.919,57.373,14.818,49.129L8.89,38.855,2.018,42.822Zm31.6,23.254a.825.825,0,0,1-.824-.825V60.768H29.828a2.6,2.6,0,0,1-2.6-2.6V33.5a2.6,2.6,0,0,1,2.6-2.6H57.872a2.6,2.6,0,0,1,2.6,2.6V58.172a2.6,2.6,0,0,1-2.6,2.6h-18.6L34.2,65.834a.825.825,0,0,1-.583.242ZM29.828,32.55a.947.947,0,0,0-.946.946V58.173a.947.947,0,0,0,.946.946h3.789a.825.825,0,0,1,.824.825v3.317l3.9-3.9a.825.825,0,0,1,.583-.242H57.872a.947.947,0,0,0,.946-.946V33.5a.947.947,0,0,0-.946-.946H29.828ZM42.271,54h3.159v-5.71a.825.825,0,0,1,.825-.824h5.577V44.206H46.254a.825.825,0,0,1-.825-.825v-5.71H42.271v5.71a.825.825,0,0,1-.824.825H35.868v3.258h5.578a.825.825,0,0,1,.824.824Z" transform="translate(0 0)" fill="#52050d" fill-rule="evenodd"/>
      <path id="Trazado_1023146" data-name="Trazado 1023146" d="M256.447,67.992a.825.825,0,0,1-.825-.825v-5.71h-5.578a.825.825,0,0,1-.825-.825V55.725a.825.825,0,0,1,.825-.824h5.578v-5.71a.825.825,0,0,1,.825-.825h4.808a.825.825,0,0,1,.825.825V54.9h5.577a.825.825,0,0,1,.825.825v4.907a.825.825,0,0,1-.825.825H262.08v5.71a.825.825,0,0,1-.825.825Zm-11.618,3.471h3.789a.825.825,0,0,1,.824.825V75.6l3.9-3.9a.825.825,0,0,1,.583-.242h18.946a.947.947,0,0,0,.946-.946V45.841a.947.947,0,0,0-.946-.946H244.829a.947.947,0,0,0-.946.946V70.517a.947.947,0,0,0,.946.946Z" transform="translate(-215.001 -12.344)" fill="#ff4500" fill-rule="evenodd"/>
      <path id="Trazado_1023147" data-name="Trazado 1023147" d="M309.562,98.96v5.71h3.159V98.96a.825.825,0,0,1,.825-.824h5.577V94.877h-5.577a.825.825,0,0,1-.825-.825v-5.71h-3.159v5.71a.825.825,0,0,1-.824.825h-5.578v3.258h5.578A.825.825,0,0,1,309.562,98.96Z" transform="translate(-267.291 -50.672)" fill="#ffd300" fill-rule="evenodd"/>
      <path id="Trazado_1023148" data-name="Trazado 1023148" d="M38.035,127.08c-13.958,7.276-23.84-10.174-10.94-18.418L21.167,98.387l-6.872,3.968c-1.132,10.584,2.106,20.43,9.629,29.269a52.316,52.316,0,0,0,11.563,10.087l8.247-4.761-5.7-9.869Z" transform="translate(-12.277 -59.533)" fill="#ff4500" fill-rule="evenodd"/>
    </g>
  </g>
</svg>
