<svg xmlns="http://www.w3.org/2000/svg" xmlns:xlink="http://www.w3.org/1999/xlink" width="110" height="110" viewBox="0 0 110 110">
  <defs>
    <filter id="Trazado_982547" x="0" y="0" width="110" height="110" filterUnits="userSpaceOnUse">
      <feOffset dy="3" input="SourceAlpha"/>
      <feGaussianBlur stdDeviation="3" result="blur"/>
      <feFlood flood-opacity="0.161"/>
      <feComposite operator="in" in2="blur"/>
      <feComposite in="SourceGraphic"/>
    </filter>
  </defs>
  <g id="Grupo_1166612" data-name="Grupo 1166612" transform="translate(-902.381 -1956.728)">
    <g id="Grupo_1166453" data-name="Grupo 1166453" transform="translate(105.19 -2.795)">
      <g id="Grupo_1164703" data-name="Grupo 1164703" transform="translate(806.19 1965.523)">
        <g id="Grupo_1160931" data-name="Grupo 1160931" transform="translate(0)">
          <g id="Grupo_1160749" data-name="Grupo 1160749" transform="translate(0)">
            <g id="Grupo_1158891" data-name="Grupo 1158891" transform="translate(0 0)">
              <g id="Grupo_1157406" data-name="Grupo 1157406" transform="translate(0)">
                <g id="Grupo_1155793" data-name="Grupo 1155793" transform="translate(0)">
                  <g id="Grupo_1154704" data-name="Grupo 1154704" transform="translate(0)">
                    <g id="Grupo_1150790" data-name="Grupo 1150790" transform="translate(0)">
                      <g id="Grupo_1154214" data-name="Grupo 1154214" transform="translate(0)">
                        <g id="Grupo_1152583" data-name="Grupo 1152583" transform="translate(0 0)">
                          <g id="Grupo_1146973" data-name="Grupo 1146973" transform="translate(0 0)">
                            <g id="Grupo_1146954" data-name="Grupo 1146954">
                              <g transform="matrix(1, 0, 0, 1, -9, -6)" filter="url(#Trazado_982547)">
                                <g id="Trazado_982547-2" data-name="Trazado 982547" transform="translate(9 6)" fill="#fcebe9">
                                  <path d="M 46.00000381469727 90.49988555908203 C 39.99188232421875 90.49988555908203 34.16427230834961 89.32352447509766 28.67905807495117 87.00347137451172 C 23.38020324707031 84.76226043701172 18.62104415893555 81.55342864990234 14.53375053405762 77.46615600585938 C 10.44647026062012 73.37887573242188 7.237643718719482 68.61971282958984 4.996417045593262 63.32085800170898 C 2.676363706588745 57.83565902709961 1.500003814697266 52.00806045532227 1.500003814697266 45.99993896484375 C 1.500003814697266 39.99181747436523 2.676363706588745 34.16421890258789 4.996417045593262 28.67901802062988 C 7.237643718719482 23.38017845153809 10.44647026062012 18.62101936340332 14.53375053405762 14.53373908996582 C 18.62104415893555 10.44645881652832 23.38020324707031 7.237632274627686 28.67905807495117 4.996418952941895 C 34.16427230834961 2.676365613937378 39.99188232421875 1.500005602836609 46.00000381469727 1.500005602836609 C 52.00812530517578 1.500005602836609 57.83573532104492 2.676365613937378 63.32094955444336 4.996418952941895 C 68.61980438232422 7.237632274627686 73.37897491455078 10.44645881652832 77.46625518798828 14.53373908996582 C 81.55355072021484 18.62101936340332 84.76236724853516 23.38017845153809 87.00359344482422 28.67901802062988 C 89.32364654541016 34.16421890258789 90.5 39.99181747436523 90.5 45.99993896484375 C 90.5 52.00806045532227 89.32364654541016 57.83565902709961 87.00359344482422 63.32085800170898 C 84.76236724853516 68.61971282958984 81.55355072021484 73.37887573242188 77.46625518798828 77.46615600585938 C 73.37897491455078 81.55342864990234 68.61980438232422 84.76226043701172 63.32094955444336 87.00347137451172 C 57.83573532104492 89.32352447509766 52.00812530517578 90.49988555908203 46.00000381469727 90.49988555908203 Z" stroke="none"/>
                                  <path d="M 46.00000381469727 2.999992370605469 C 40.19371795654297 2.999992370605469 34.56270217895508 4.136497497558594 29.26338958740234 6.377906799316406 C 24.14333343505859 8.543510437011719 19.54441833496094 11.64437866210938 15.59440612792969 15.59439849853516 C 11.64440155029297 19.54439544677734 8.54351806640625 24.14329528808594 6.377914428710938 29.26335144042969 C 4.136505126953125 34.56266784667969 3.000007629394531 40.19366836547852 3.000007629394531 45.99993896484375 C 3.000007629394531 51.80620956420898 4.136505126953125 57.43722534179688 6.377914428710938 62.73654174804688 C 8.54351806640625 67.85658264160156 11.64440155029297 72.45548248291016 15.59440612792969 76.40549468994141 C 19.54441833496094 80.35549926757812 24.14333343505859 83.45636749267578 29.26337432861328 85.62196350097656 C 34.56270217895508 87.86338043212891 40.19371795654297 88.9998779296875 46.00000381469727 88.9998779296875 C 51.80628967285156 88.9998779296875 57.43730545043945 87.86338043212891 62.73663330078125 85.62196350097656 C 67.85667419433594 83.45636749267578 72.45558929443359 80.35549926757812 76.40560150146484 76.40549468994141 C 80.35560607910156 72.45548248291016 83.45648956298828 67.85658264160156 85.62208557128906 62.73654174804688 C 87.86350250244141 57.43722534179688 89 51.80620956420898 89 45.99993896484375 C 89 40.19366836547852 87.86350250244141 34.56266784667969 85.62208557128906 29.26335144042969 C 83.45648956298828 24.14329528808594 80.35560607910156 19.54439544677734 76.40560150146484 15.59439849853516 C 72.45558929443359 11.64437866210938 67.85667419433594 8.543510437011719 62.73661804199219 6.377906799316406 C 57.43730545043945 4.136497497558594 51.80628967285156 2.999992370605469 46.00000381469727 2.999992370605469 M 46.00000381469727 -7.62939453125e-06 C 71.40510559082031 -7.62939453125e-06 92 20.59487915039062 92 45.99993896484375 C 92 71.40501403808594 71.40510559082031 91.99988555908203 46.00000381469727 91.99988555908203 C 20.59490203857422 91.99988555908203 7.62939453125e-06 71.40501403808594 7.62939453125e-06 45.99993896484375 C 7.62939453125e-06 20.59487915039062 20.59490203857422 -7.62939453125e-06 46.00000381469727 -7.62939453125e-06 Z" stroke="none" fill="#e44b36"/>
                                </g>
                              </g>
                            </g>
                          </g>
                        </g>
                      </g>
                    </g>
                  </g>
                </g>
              </g>
            </g>
          </g>
        </g>
      </g>
    </g>
    <g id="emergency-funds_12315714" transform="translate(911.398 1935.263)">
      <g id="Grupo_1166611" data-name="Grupo 1166611" transform="translate(15.858 49.569)">
        <path id="Trazado_1023136" data-name="Trazado 1023136" d="M34.86,57.359a9.268,9.268,0,0,1,2.095-5.389,6.417,6.417,0,0,1,4.884-2.4H62.448a6.417,6.417,0,0,1,4.884,2.4,9.266,9.266,0,0,1,2.095,5.389h.687a.69.69,0,0,1,.69.69v1.384h3.418a1.89,1.89,0,0,1,1.886,1.886V71.612a1.947,1.947,0,0,1-1.808,1.88v17.2a2.572,2.572,0,0,1-2.565,2.565H41.208c-.851,6.791-6.7,8.107-12.765,8.107-6.914,0-12.585-1.756-12.585-9.891a15.084,15.084,0,0,1,5.868-12.218,2.274,2.274,0,0,1,1.045-4.214L21.136,72.2a2.782,2.782,0,0,1-.385-1.4,2.811,2.811,0,0,1,2.806-2.8H28.18V61.319a1.89,1.89,0,0,1,1.886-1.886h3.418V58.049a.69.69,0,0,1,.69-.69Zm29.373,0a3.831,3.831,0,0,0-.8-1.983h0a2.155,2.155,0,0,0-1.644-.87H42.5c-1.375,0-2.286,1.479-2.443,2.851h.693a.69.69,0,0,1,.69.69v1.384H62.851V58.049a.69.69,0,0,1,.69-.69Z" transform="translate(-15.858 -49.569)" fill-rule="evenodd"/>
        <path id="Trazado_1023137" data-name="Trazado 1023137" d="M180.754,66.974c.188-2.152,1.665-4.23,3.824-4.23h19.293c2.187,0,3.638,2.109,3.824,4.23h2.435a7.866,7.866,0,0,0-1.768-4.5,5.057,5.057,0,0,0-3.833-1.911H183.92a5.057,5.057,0,0,0-3.833,1.911,7.866,7.866,0,0,0-1.768,4.5Z" transform="translate(-157.939 -59.184)" fill="#e6e6e6" fill-rule="evenodd"/>
        <path id="Trazado_1023138" data-name="Trazado 1023138" d="M202.193,240.318H164.563l-.889,1.54a2.274,2.274,0,0,1,1.046,4.215,15.137,15.137,0,0,1,5.863,12.623h30.425a1.192,1.192,0,0,0,1.187-1.186Zm-22.512,2.455h3.471a.69.69,0,0,1,.69.69v3.07h3.07a.69.69,0,0,1,.69.69v3.471a.69.69,0,0,1-.69.69h-3.071v3.07a.69.69,0,0,1-.69.69h-3.47a.69.69,0,0,1-.69-.69v-3.071h-3.07a.69.69,0,0,1-.69-.69v-3.47a.69.69,0,0,1,.69-.69h3.07v-3.07A.69.69,0,0,1,179.682,242.773Z" transform="translate(-145.131 -216.389)" fill="#a97c50" fill-rule="evenodd"/>
        <path id="Trazado_1023139" data-name="Trazado 1023139" d="M131.6,150.5h38.1c.214-.02.549-.207.549-.507V139.7a.51.51,0,0,0-.507-.507H166.32v1.4a.69.69,0,0,1-.69.69h-6.573a.69.69,0,0,1-.69-.69v-1.4H136.954v1.4a.69.69,0,0,1-.69.69H129.69a.69.69,0,0,1-.69-.69v-1.4h-3.417a.51.51,0,0,0-.507.507v6.691h4.057A2.788,2.788,0,0,1,131.6,150.5Z" transform="translate(-111.375 -127.95)" fill="#a97c50" fill-rule="evenodd"/>
        <path id="Trazado_1023140" data-name="Trazado 1023140" d="M68.08,213.2h8.463l2.029-3.514a1.392,1.392,0,0,0,0-1.422h0a1.36,1.36,0,0,0-1.231-.709H67.282a1.36,1.36,0,0,0-1.231.709h0a1.391,1.391,0,0,0,0,1.422Z" transform="translate(-59.584 -187.739)" fill="#78a678" fill-rule="evenodd"/>
        <path id="Trazado_1023141" data-name="Trazado 1023141" d="M43.01,266.723H33.371a12.107,12.107,0,0,0-4.711,4.76,14.571,14.571,0,0,0-1.819,7.129c0,3.542,1.189,5.66,3.131,6.881,2.011,1.263,4.866,1.632,8.076,1.632s6.142-.37,8.226-1.637c2.01-1.223,3.266-3.339,3.266-6.875,0-4.865-2.369-9.627-6.53-11.889Zm.866-3.168H32.505a.894.894,0,0,0,0,1.789H43.876a.894.894,0,0,0,0-1.789Zm-9.009,17.019a.69.69,0,0,1,1.379,0c0,1.426,2.1,2.133,3.281,1.093a1.458,1.458,0,0,0,.522-1.093c0-2.7-5.095-.412-5.095-4.552a3.06,3.06,0,0,1,2.591-2.9v-.767a.69.69,0,1,1,1.379,0v.767a3.06,3.06,0,0,1,2.591,2.9.69.69,0,0,1-1.379,0c0-1.428-2.1-2.131-3.281-1.093a1.458,1.458,0,0,0-.522,1.093c0,2.66,5.095.384,5.095,4.552a3.049,3.049,0,0,1-2.5,2.882v.785a.69.69,0,1,1-1.379,0v-.751A3.071,3.071,0,0,1,34.867,280.574Z" transform="translate(-25.463 -236.711)" fill="#78a678" fill-rule="evenodd"/>
      </g>
      <path id="Trazado_1023142" data-name="Trazado 1023142" d="M401.458,122.661h5.195v2.786h-5.195Z" transform="translate(-337.228 -63.923)" fill="#ccc"/>
      <path id="Trazado_1023143" data-name="Trazado 1023143" d="M167.358,122.661h5.195v2.786h-5.195Z" transform="translate(-132.495 -63.923)" fill="#ccc"/>
      <path id="Trazado_1023144" data-name="Trazado 1023144" d="M272.652,270.881H270.56v3.07a.69.69,0,0,1-.69.69H266.8v2.092h3.071a.69.69,0,0,1,.69.69v3.07h2.091v-3.071a.69.69,0,0,1,.69-.69h3.07v-2.091h-3.071a.69.69,0,0,1-.69-.69Z" transform="translate(-219.463 -193.549)" fill="#ff3d3d" fill-rule="evenodd"/>
    </g>
  </g>
</svg>
