<svg xmlns="http://www.w3.org/2000/svg" xmlns:xlink="http://www.w3.org/1999/xlink" width="110" height="110" viewBox="0 0 110 110">
  <defs>
    <filter id="Trazado_982547" x="0" y="0" width="110" height="110" filterUnits="userSpaceOnUse">
      <feOffset dy="3" input="SourceAlpha"/>
      <feGaussianBlur stdDeviation="3" result="blur"/>
      <feFlood flood-opacity="0.161"/>
      <feComposite operator="in" in2="blur"/>
      <feComposite in="SourceGraphic"/>
    </filter>
  </defs>
  <g id="Grupo_1166610" data-name="Grupo 1166610" transform="translate(-587 -1957.205)">
    <g id="Grupo_1166443" data-name="Grupo 1166443" transform="translate(-525 -2.795)">
      <g id="Grupo_1164700" data-name="Grupo 1164700" transform="translate(1121 1966)">
        <g id="Grupo_1160931" data-name="Grupo 1160931" transform="translate(0)">
          <g id="Grupo_1160749" data-name="Grupo 1160749" transform="translate(0)">
            <g id="Grupo_1158891" data-name="Grupo 1158891" transform="translate(0 0)">
              <g id="Grupo_1157406" data-name="Grupo 1157406" transform="translate(0)">
                <g id="Grupo_1155793" data-name="Grupo 1155793" transform="translate(0)">
                  <g id="Grupo_1154704" data-name="Grupo 1154704" transform="translate(0)">
                    <g id="Grupo_1150790" data-name="Grupo 1150790" transform="translate(0)">
                      <g id="Grupo_1154214" data-name="Grupo 1154214" transform="translate(0)">
                        <g id="Grupo_1152583" data-name="Grupo 1152583" transform="translate(0 0)">
                          <g id="Grupo_1146973" data-name="Grupo 1146973" transform="translate(0 0)">
                            <g id="Grupo_1146954" data-name="Grupo 1146954">
                              <g transform="matrix(1, 0, 0, 1, -9, -6)" filter="url(#Trazado_982547)">
                                <g id="Trazado_982547-2" data-name="Trazado 982547" transform="translate(9 6)" fill="#fcebe9">
                                  <path d="M 46.00000381469727 90.49988555908203 C 39.99188232421875 90.49988555908203 34.16427230834961 89.32352447509766 28.67905807495117 87.00347137451172 C 23.38020324707031 84.76226043701172 18.62104415893555 81.55342864990234 14.53375053405762 77.46615600585938 C 10.44647026062012 73.37887573242188 7.237643718719482 68.61971282958984 4.996417045593262 63.32085800170898 C 2.676363706588745 57.83565902709961 1.500003814697266 52.00806045532227 1.500003814697266 45.99993896484375 C 1.500003814697266 39.99181747436523 2.676363706588745 34.16421890258789 4.996417045593262 28.67901802062988 C 7.237643718719482 23.38017845153809 10.44647026062012 18.62101936340332 14.53375053405762 14.53373908996582 C 18.62104415893555 10.44645881652832 23.38020324707031 7.237632274627686 28.67905807495117 4.996418952941895 C 34.16427230834961 2.676365613937378 39.99188232421875 1.500005602836609 46.00000381469727 1.500005602836609 C 52.00812530517578 1.500005602836609 57.83573532104492 2.676365613937378 63.32094955444336 4.996418952941895 C 68.61980438232422 7.237632274627686 73.37897491455078 10.44645881652832 77.46625518798828 14.53373908996582 C 81.55355072021484 18.62101936340332 84.76236724853516 23.38017845153809 87.00359344482422 28.67901802062988 C 89.32364654541016 34.16421890258789 90.5 39.99181747436523 90.5 45.99993896484375 C 90.5 52.00806045532227 89.32364654541016 57.83565902709961 87.00359344482422 63.32085800170898 C 84.76236724853516 68.61971282958984 81.55355072021484 73.37887573242188 77.46625518798828 77.46615600585938 C 73.37897491455078 81.55342864990234 68.61980438232422 84.76226043701172 63.32094955444336 87.00347137451172 C 57.83573532104492 89.32352447509766 52.00812530517578 90.49988555908203 46.00000381469727 90.49988555908203 Z" stroke="none"/>
                                  <path d="M 46.00000381469727 2.999992370605469 C 40.19371795654297 2.999992370605469 34.56270217895508 4.136497497558594 29.26338958740234 6.377906799316406 C 24.14333343505859 8.543510437011719 19.54441833496094 11.64437866210938 15.59440612792969 15.59439849853516 C 11.64440155029297 19.54439544677734 8.54351806640625 24.14329528808594 6.377914428710938 29.26335144042969 C 4.136505126953125 34.56266784667969 3.000007629394531 40.19366836547852 3.000007629394531 45.99993896484375 C 3.000007629394531 51.80620956420898 4.136505126953125 57.43722534179688 6.377914428710938 62.73654174804688 C 8.54351806640625 67.85658264160156 11.64440155029297 72.45548248291016 15.59440612792969 76.40549468994141 C 19.54441833496094 80.35549926757812 24.14333343505859 83.45636749267578 29.26337432861328 85.62196350097656 C 34.56270217895508 87.86338043212891 40.19371795654297 88.9998779296875 46.00000381469727 88.9998779296875 C 51.80628967285156 88.9998779296875 57.43730545043945 87.86338043212891 62.73663330078125 85.62196350097656 C 67.85667419433594 83.45636749267578 72.45558929443359 80.35549926757812 76.40560150146484 76.40549468994141 C 80.35560607910156 72.45548248291016 83.45648956298828 67.85658264160156 85.62208557128906 62.73654174804688 C 87.86350250244141 57.43722534179688 89 51.80620956420898 89 45.99993896484375 C 89 40.19366836547852 87.86350250244141 34.56266784667969 85.62208557128906 29.26335144042969 C 83.45648956298828 24.14329528808594 80.35560607910156 19.54439544677734 76.40560150146484 15.59439849853516 C 72.45558929443359 11.64437866210938 67.85667419433594 8.543510437011719 62.73661804199219 6.377906799316406 C 57.43730545043945 4.136497497558594 51.80628967285156 2.999992370605469 46.00000381469727 2.999992370605469 M 46.00000381469727 -7.62939453125e-06 C 71.40510559082031 -7.62939453125e-06 92 20.59487915039062 92 45.99993896484375 C 92 71.40501403808594 71.40510559082031 91.99988555908203 46.00000381469727 91.99988555908203 C 20.59490203857422 91.99988555908203 7.62939453125e-06 71.40501403808594 7.62939453125e-06 45.99993896484375 C 7.62939453125e-06 20.59487915039062 20.59490203857422 -7.62939453125e-06 46.00000381469727 -7.62939453125e-06 Z" stroke="none" fill="#e44b36"/>
                                </g>
                              </g>
                            </g>
                          </g>
                        </g>
                      </g>
                    </g>
                  </g>
                </g>
              </g>
            </g>
          </g>
        </g>
      </g>
    </g>
    <g id="average-position_6029526" transform="translate(618.095 1983.476)">
      <g id="Grupo_1166608" data-name="Grupo 1166608" transform="translate(0.907 0.907)">
        <g id="Grupo_1166600" data-name="Grupo 1166600" transform="translate(0 36.274)">
          <path id="Trazado_1023108" data-name="Trazado 1023108" d="M35.7,342.51H9.814A1.813,1.813,0,0,1,8,340.7V329.814A1.813,1.813,0,0,1,9.814,328H29.764v5.441h2.271a14.462,14.462,0,0,0,1.553,3.743l-1.607,1.607Z" transform="translate(-8 -328)" fill="#f0d0b4"/>
        </g>
        <g id="Grupo_1166601" data-name="Grupo 1166601" transform="translate(0 18.137)">
          <path id="Trazado_1023109" data-name="Trazado 1023109" d="M35.7,175.255l-3.718,3.718,1.607,1.607a14.471,14.471,0,0,0-.975,1.981l-.128-.052H9.814A1.813,1.813,0,0,1,8,180.7V169.814A1.813,1.813,0,0,1,9.814,168H37.019a1.813,1.813,0,0,1,1.814,1.814v5.57l-.116.067-1.607-1.607Z" transform="translate(-8 -168)" fill="#f0d0b4"/>
        </g>
        <g id="Grupo_1166602" data-name="Grupo 1166602">
          <path id="Trazado_1023110" data-name="Trazado 1023110" d="M38.833,9.814V20.7a1.813,1.813,0,0,1-1.814,1.814H9.814A1.813,1.813,0,0,1,8,20.7V9.814A1.813,1.813,0,0,1,9.814,8H37.019A1.813,1.813,0,0,1,38.833,9.814Z" transform="translate(-8 -8)" fill="#f0d0b4"/>
        </g>
        <g id="Grupo_1166603" data-name="Grupo 1166603" transform="translate(21.764 21.764)">
          <path id="Trazado_1023111" data-name="Trazado 1023111" d="M232.647,212.7v7.255h-2.271a14.461,14.461,0,0,1-1.553,3.743l1.607,1.607-5.129,5.129-1.607-1.607a14.461,14.461,0,0,1-3.743,1.553v2.271H212.7v-2.271a14.461,14.461,0,0,1-3.743-1.553l-1.607,1.607-1.411-1.411-3.718-3.718,1.607-1.607a14.461,14.461,0,0,1-1.553-3.743H200V212.7h2.271a14.1,14.1,0,0,1,.578-1.762,14.47,14.47,0,0,1,.975-1.981l-1.607-1.607,3.718-3.718,1.411-1.411,1.607,1.607.116-.067a14.428,14.428,0,0,1,3.627-1.486V200h7.255v2.271a14.461,14.461,0,0,1,3.743,1.553l1.607-1.607,5.129,5.129-1.607,1.607a14.461,14.461,0,0,1,1.553,3.743Z" transform="translate(-200 -200)" fill="#fcd770"/>
        </g>
        <g id="Grupo_1166604" data-name="Grupo 1166604" transform="translate(30.833 39.901)">
          <path id="Trazado_1023112" data-name="Trazado 1023112" d="M283.627,360v6.348a.907.907,0,0,1-.907.907h-1.814a.907.907,0,0,1-.907-.907V360Z" transform="translate(-280 -360)" fill="#969faa"/>
        </g>
        <g id="Grupo_1166605" data-name="Grupo 1166605" transform="translate(34.46 30.833)">
          <path id="Trazado_1023113" data-name="Trazado 1023113" d="M321.069,280v10.882L312,289.069v-7.255Z" transform="translate(-312 -280)" fill="#e6e9ed"/>
        </g>
        <g id="Grupo_1166606" data-name="Grupo 1166606" transform="translate(43.529 29.019)">
          <path id="Trazado_1023114" data-name="Trazado 1023114" d="M395.627,264.907v12.7a.907.907,0,0,1-.907.907h-1.814A.907.907,0,0,1,392,277.6v-12.7a.907.907,0,0,1,.907-.907h1.814A.907.907,0,0,1,395.627,264.907Z" transform="translate(-392 -264)" fill="#ff826e"/>
        </g>
        <g id="Grupo_1166607" data-name="Grupo 1166607" transform="translate(27.206 32.647)">
          <path id="Trazado_1023115" data-name="Trazado 1023115" d="M255.255,296v7.255h-5.441A1.813,1.813,0,0,1,248,301.441v-3.627A1.813,1.813,0,0,1,249.814,296Z" transform="translate(-248 -296)" fill="#ff826e"/>
        </g>
      </g>
      <g id="Grupo_1166609" data-name="Grupo 1166609" transform="translate(0)">
        <path id="Trazado_1023116" data-name="Trazado 1023116" d="M259.951,256h-1.814a1.816,1.816,0,0,0-1.814,1.814v.163l-8.251,1.65h-5.351A2.724,2.724,0,0,0,240,262.348v3.627a2.724,2.724,0,0,0,2.721,2.721h.907v5.441a1.816,1.816,0,0,0,1.814,1.814h1.814a1.816,1.816,0,0,0,1.814-1.814V268.9l7.255,1.451v.163a1.816,1.816,0,0,0,1.814,1.814h1.814a1.816,1.816,0,0,0,1.814-1.814v-12.7A1.816,1.816,0,0,0,259.951,256Zm-18.137,9.975v-3.627a.908.908,0,0,1,.907-.907h4.534v5.441h-4.534A.908.908,0,0,1,241.814,265.975Zm3.627,8.162V268.7h1.814v5.441Zm3.627-7.091v-5.768l7.255-1.451v8.67Zm10.882,3.464h-1.814v-12.7h1.814Z" transform="translate(-212.794 -226.981)"/>
        <path id="Trazado_1023117" data-name="Trazado 1023117" d="M56.225,43.529V34.46H53.733a15.331,15.331,0,0,0-1.112-2.68l1.763-1.763L47.972,23.6l-1.763,1.763a15.319,15.319,0,0,0-2.68-1.112V21.764H34.46v2.492a15.309,15.309,0,0,0-1.814.688V20.858a2.724,2.724,0,0,0-2.721-2.721h-13.6V16.323h13.6A2.724,2.724,0,0,0,32.647,13.6V2.721A2.724,2.724,0,0,0,29.926,0H2.721A2.724,2.724,0,0,0,0,2.721V13.6a2.724,2.724,0,0,0,2.721,2.721H14.51v1.814H2.721A2.724,2.724,0,0,0,0,20.858V31.74A2.724,2.724,0,0,0,2.721,34.46H14.51v1.814H2.721A2.724,2.724,0,0,0,0,38.995V49.877A2.724,2.724,0,0,0,2.721,52.6H28.23l1.787,1.787,1.763-1.763a15.319,15.319,0,0,0,2.68,1.112v2.492h9.069V53.733a15.326,15.326,0,0,0,2.68-1.112l1.763,1.763,6.412-6.412-1.763-1.763a15.319,15.319,0,0,0,1.112-2.68ZM1.814,13.6V2.721a.908.908,0,0,1,.907-.907H29.926a.908.908,0,0,1,.907.907V13.6a.908.908,0,0,1-.907.907H2.721A.908.908,0,0,1,1.814,13.6ZM16.323,34.46h3.627V32.647H2.721a.908.908,0,0,1-.907-.907V20.858a.908.908,0,0,1,.907-.907H29.926a.908.908,0,0,1,.907.907v3.563l-.816-.816L28.23,25.392H12.7v1.814H26.417L23.6,30.017l1.763,1.763a15.324,15.324,0,0,0-1.112,2.68H21.764v1.814H16.323ZM2.721,50.784a.908.908,0,0,1-.907-.907V38.995a.908.908,0,0,1,.907-.907H21.764v5.441h2.492a15.326,15.326,0,0,0,1.112,2.68L23.6,47.972l2.812,2.812Zm49.624-9.069-.175.681A13.517,13.517,0,0,1,50.714,45.9l-.358.605,1.463,1.463-3.847,3.847-1.463-1.463-.605.358A13.517,13.517,0,0,1,42.4,52.169l-.681.175v2.067H36.274V52.344l-.681-.175a13.517,13.517,0,0,1-3.507-1.455l-.605-.358L30.017,51.82,26.17,47.972l1.463-1.463-.358-.605A13.517,13.517,0,0,1,25.82,42.4l-.175-.681H23.578V36.274h2.067l.175-.681a13.521,13.521,0,0,1,1.455-3.507l.358-.605L26.17,30.017l3.847-3.847,1.463,1.463.605-.358a13.517,13.517,0,0,1,3.507-1.455l.681-.175V23.578h5.441v2.067l.681.175A13.517,13.517,0,0,1,45.9,27.275l.605.358,1.463-1.463,3.847,3.847L50.356,31.48l.358.605a13.521,13.521,0,0,1,1.455,3.507l.175.681h2.067v5.441H52.344Z" transform="translate(0)"/>
        <path id="Trazado_1023118" data-name="Trazado 1023118" d="M28.682,40.828l-1.057-1.057-1.283,1.283,2.571,2.571L34.07,36.4l-1.476-1.054Z" transform="translate(-23.357 -31.344)"/>
        <path id="Trazado_1023119" data-name="Trazado 1023119" d="M112,32h5.441v1.814H112Z" transform="translate(-99.304 -28.373)"/>
        <path id="Trazado_1023120" data-name="Trazado 1023120" d="M176,32h9.069v1.814H176Z" transform="translate(-156.049 -28.373)"/>
        <path id="Trazado_1023121" data-name="Trazado 1023121" d="M112,64h16.323v1.814H112Z" transform="translate(-99.304 -56.745)"/>
        <path id="Trazado_1023122" data-name="Trazado 1023122" d="M112,96h5.441v1.814H112Z" transform="translate(-99.304 -85.118)"/>
        <path id="Trazado_1023123" data-name="Trazado 1023123" d="M176,96h1.814v1.814H176Z" transform="translate(-156.049 -85.118)"/>
        <path id="Trazado_1023124" data-name="Trazado 1023124" d="M208,96h1.814v1.814H208Z" transform="translate(-184.422 -85.118)"/>
        <path id="Trazado_1023125" data-name="Trazado 1023125" d="M240,96h1.814v1.814H240Z" transform="translate(-212.794 -85.118)"/>
        <path id="Trazado_1023126" data-name="Trazado 1023126" d="M28.682,200.828l-1.057-1.057-1.283,1.283,2.571,2.571L34.07,196.4l-1.476-1.054Z" transform="translate(-23.357 -173.207)"/>
        <path id="Trazado_1023127" data-name="Trazado 1023127" d="M112,192h5.441v1.814H112Z" transform="translate(-99.304 -170.236)"/>
        <path id="Trazado_1023128" data-name="Trazado 1023128" d="M176,192h9.069v1.814H176Z" transform="translate(-156.049 -170.236)"/>
        <path id="Trazado_1023129" data-name="Trazado 1023129" d="M112,256h5.441v1.814H112Z" transform="translate(-99.304 -226.981)"/>
        <path id="Trazado_1023130" data-name="Trazado 1023130" d="M176,256h1.814v1.814H176Z" transform="translate(-156.049 -226.981)"/>
        <path id="Trazado_1023131" data-name="Trazado 1023131" d="M28.682,360.828l-1.057-1.057-1.283,1.283,2.571,2.571L34.07,356.4l-1.476-1.054Z" transform="translate(-23.357 -315.07)"/>
        <path id="Trazado_1023132" data-name="Trazado 1023132" d="M112,352h7.255v1.814H112Z" transform="translate(-99.304 -312.099)"/>
        <path id="Trazado_1023133" data-name="Trazado 1023133" d="M112,384h7.255v1.814H112Z" transform="translate(-99.304 -340.471)"/>
        <path id="Trazado_1023134" data-name="Trazado 1023134" d="M112,416h5.441v1.814H112Z" transform="translate(-99.304 -368.844)"/>
        <path id="Trazado_1023135" data-name="Trazado 1023135" d="M176,416h1.814v1.814H176Z" transform="translate(-156.049 -368.844)"/>
      </g>
    </g>
  </g>
</svg>
