<svg xmlns="http://www.w3.org/2000/svg" xmlns:xlink="http://www.w3.org/1999/xlink" width="110" height="110" viewBox="0 0 110 110">
  <defs>
    <filter id="Trazado_982547" x="0" y="0" width="110" height="110" filterUnits="userSpaceOnUse">
      <feOffset dy="3" input="SourceAlpha"/>
      <feGaussianBlur stdDeviation="3" result="blur"/>
      <feFlood flood-opacity="0.161"/>
      <feComposite operator="in" in2="blur"/>
      <feComposite in="SourceGraphic"/>
    </filter>
  </defs>
  <g id="Grupo_1166599" data-name="Grupo 1166599" transform="translate(-272.19 -1956.728)">
    <g id="Grupo_1166442" data-name="Grupo 1166442" transform="translate(-525 -2.795)">
      <g id="Grupo_1164703" data-name="Grupo 1164703" transform="translate(806.19 1965.523)">
        <g id="Grupo_1160931" data-name="Grupo 1160931" transform="translate(0)">
          <g id="Grupo_1160749" data-name="Grupo 1160749" transform="translate(0)">
            <g id="Grupo_1158891" data-name="Grupo 1158891" transform="translate(0 0)">
              <g id="Grupo_1157406" data-name="Grupo 1157406" transform="translate(0)">
                <g id="Grupo_1155793" data-name="Grupo 1155793" transform="translate(0)">
                  <g id="Grupo_1154704" data-name="Grupo 1154704" transform="translate(0)">
                    <g id="Grupo_1150790" data-name="Grupo 1150790" transform="translate(0)">
                      <g id="Grupo_1154214" data-name="Grupo 1154214" transform="translate(0)">
                        <g id="Grupo_1152583" data-name="Grupo 1152583" transform="translate(0 0)">
                          <g id="Grupo_1146973" data-name="Grupo 1146973" transform="translate(0 0)">
                            <g id="Grupo_1146954" data-name="Grupo 1146954">
                              <g transform="matrix(1, 0, 0, 1, -9, -6)" filter="url(#Trazado_982547)">
                                <g id="Trazado_982547-2" data-name="Trazado 982547" transform="translate(9 6)" fill="#fcebe9">
                                  <path d="M 46.00000381469727 90.49988555908203 C 39.99188232421875 90.49988555908203 34.16427230834961 89.32352447509766 28.67905807495117 87.00347137451172 C 23.38020324707031 84.76226043701172 18.62104415893555 81.55342864990234 14.53375053405762 77.46615600585938 C 10.44647026062012 73.37887573242188 7.237643718719482 68.61971282958984 4.996417045593262 63.32085800170898 C 2.676363706588745 57.83565902709961 1.500003814697266 52.00806045532227 1.500003814697266 45.99993896484375 C 1.500003814697266 39.99181747436523 2.676363706588745 34.16421890258789 4.996417045593262 28.67901802062988 C 7.237643718719482 23.38017845153809 10.44647026062012 18.62101936340332 14.53375053405762 14.53373908996582 C 18.62104415893555 10.44645881652832 23.38020324707031 7.237632274627686 28.67905807495117 4.996418952941895 C 34.16427230834961 2.676365613937378 39.99188232421875 1.500005602836609 46.00000381469727 1.500005602836609 C 52.00812530517578 1.500005602836609 57.83573532104492 2.676365613937378 63.32094955444336 4.996418952941895 C 68.61980438232422 7.237632274627686 73.37897491455078 10.44645881652832 77.46625518798828 14.53373908996582 C 81.55355072021484 18.62101936340332 84.76236724853516 23.38017845153809 87.00359344482422 28.67901802062988 C 89.32364654541016 34.16421890258789 90.5 39.99181747436523 90.5 45.99993896484375 C 90.5 52.00806045532227 89.32364654541016 57.83565902709961 87.00359344482422 63.32085800170898 C 84.76236724853516 68.61971282958984 81.55355072021484 73.37887573242188 77.46625518798828 77.46615600585938 C 73.37897491455078 81.55342864990234 68.61980438232422 84.76226043701172 63.32094955444336 87.00347137451172 C 57.83573532104492 89.32352447509766 52.00812530517578 90.49988555908203 46.00000381469727 90.49988555908203 Z" stroke="none"/>
                                  <path d="M 46.00000381469727 2.999992370605469 C 40.19371795654297 2.999992370605469 34.56270217895508 4.136497497558594 29.26338958740234 6.377906799316406 C 24.14333343505859 8.543510437011719 19.54441833496094 11.64437866210938 15.59440612792969 15.59439849853516 C 11.64440155029297 19.54439544677734 8.54351806640625 24.14329528808594 6.377914428710938 29.26335144042969 C 4.136505126953125 34.56266784667969 3.000007629394531 40.19366836547852 3.000007629394531 45.99993896484375 C 3.000007629394531 51.80620956420898 4.136505126953125 57.43722534179688 6.377914428710938 62.73654174804688 C 8.54351806640625 67.85658264160156 11.64440155029297 72.45548248291016 15.59440612792969 76.40549468994141 C 19.54441833496094 80.35549926757812 24.14333343505859 83.45636749267578 29.26337432861328 85.62196350097656 C 34.56270217895508 87.86338043212891 40.19371795654297 88.9998779296875 46.00000381469727 88.9998779296875 C 51.80628967285156 88.9998779296875 57.43730545043945 87.86338043212891 62.73663330078125 85.62196350097656 C 67.85667419433594 83.45636749267578 72.45558929443359 80.35549926757812 76.40560150146484 76.40549468994141 C 80.35560607910156 72.45548248291016 83.45648956298828 67.85658264160156 85.62208557128906 62.73654174804688 C 87.86350250244141 57.43722534179688 89 51.80620956420898 89 45.99993896484375 C 89 40.19366836547852 87.86350250244141 34.56266784667969 85.62208557128906 29.26335144042969 C 83.45648956298828 24.14329528808594 80.35560607910156 19.54439544677734 76.40560150146484 15.59439849853516 C 72.45558929443359 11.64437866210938 67.85667419433594 8.543510437011719 62.73661804199219 6.377906799316406 C 57.43730545043945 4.136497497558594 51.80628967285156 2.999992370605469 46.00000381469727 2.999992370605469 M 46.00000381469727 -7.62939453125e-06 C 71.40510559082031 -7.62939453125e-06 92 20.59487915039062 92 45.99993896484375 C 92 71.40501403808594 71.40510559082031 91.99988555908203 46.00000381469727 91.99988555908203 C 20.59490203857422 91.99988555908203 7.62939453125e-06 71.40501403808594 7.62939453125e-06 45.99993896484375 C 7.62939453125e-06 20.59487915039062 20.59490203857422 -7.62939453125e-06 46.00000381469727 -7.62939453125e-06 Z" stroke="none" fill="#e44b36"/>
                                </g>
                              </g>
                            </g>
                          </g>
                        </g>
                      </g>
                    </g>
                  </g>
                </g>
              </g>
            </g>
          </g>
        </g>
      </g>
    </g>
    <g id="emergency_10984890" transform="translate(294.139 1978.987)">
      <g id="Grupo_1166598" data-name="Grupo 1166598" transform="translate(8.947 1.901)">
        <g id="Grupo_1166595" data-name="Grupo 1166595" transform="translate(0 0)">
          <path id="Trazado_1023098" data-name="Trazado 1023098" d="M56.938,53.09a2.3,2.3,0,0,1,2.3,2.3V101.5a2.3,2.3,0,0,1-2.3,2.3h-38.6a2.3,2.3,0,0,1-2.3-2.3V55.387a2.3,2.3,0,0,1,2.3-2.3Z" transform="translate(-16.044 -48.12)" fill="#da8c36" fill-rule="evenodd"/>
          <path id="Trazado_1023099" data-name="Trazado 1023099" d="M49.251,86.3v43.225H79.459l5.5-5.5V86.3Z" transform="translate(-45.508 -77.585)" fill="#eff4f7" fill-rule="evenodd"/>
          <path id="Trazado_1023100" data-name="Trazado 1023100" d="M317.259,426.517l5.5-5.5h-5.5Z" transform="translate(-283.308 -374.58)" fill="#e2e3e3" fill-rule="evenodd"/>
          <path id="Trazado_1023101" data-name="Trazado 1023101" d="M133.056,13.97h5.415L136.18,10.73a1.1,1.1,0,0,1,.9-1.73h7.174a1.1,1.1,0,0,1,.9,1.73l-2.291,3.239h5.416a.9.9,0,0,1,.9.9v3.413a.9.9,0,0,1-.9.9H133.056a.9.9,0,0,1-.9-.9V14.871a.9.9,0,0,1,.9-.9Z" transform="translate(-119.067 -9)" fill="#8d9ca8" fill-rule="evenodd"/>
        </g>
        <g id="Grupo_1166596" data-name="Grupo 1166596" transform="translate(8.849 18.806)">
          <path id="Trazado_1023102" data-name="Trazado 1023102" d="M124.659,199.819h18.707V185.205a9.353,9.353,0,0,0-18.707,0Z" transform="translate(-121.265 -175.852)" fill="#ffda2d" fill-rule="evenodd"/>
          <path id="Trazado_1023103" data-name="Trazado 1023103" d="M196.067,207.662a1.172,1.172,0,1,1-1.172,1.172A1.172,1.172,0,0,1,196.067,207.662Zm.911-2.638a.913.913,0,0,1-1.822,0l-.559-6.994a1.473,1.473,0,0,1,2.941,0Z" transform="translate(-183.32 -194.304)" fill="#fc685b" fill-rule="evenodd"/>
          <path id="Trazado_1023104" data-name="Trazado 1023104" d="M109.907,341.884h21.232a.452.452,0,0,0,.451-.451v-5.019a.452.452,0,0,0-.451-.451H109.907a.452.452,0,0,0-.451.451v5.019A.452.452,0,0,0,109.907,341.884Z" transform="translate(-107.776 -317.916)" fill="#9bb9c3" fill-rule="evenodd"/>
          <path id="Trazado_1023105" data-name="Trazado 1023105" d="M95,365.187h24.592a.452.452,0,0,0,.451-.451v-2.059a.452.452,0,0,0-.451-.451H95a.452.452,0,0,0-.451.451v2.059A.452.452,0,0,0,95,365.187Z" transform="translate(-94.55 -341.22)" fill="#b4d2d7" fill-rule="evenodd"/>
        </g>
        <g id="Grupo_1166597" data-name="Grupo 1166597" transform="translate(32.29 10.243)">
          <path id="Trazado_1023106" data-name="Trazado 1023106" d="M311.605,99.88h3.638v1.825a9.2,9.2,0,0,1,3.311,1.373l1.291-1.291,2.573,2.573-1.291,1.291a9.2,9.2,0,0,1,1.372,3.311h1.826V112.6H322.5a9.2,9.2,0,0,1-1.373,3.311l1.291,1.291-2.573,2.573-1.291-1.291a9.2,9.2,0,0,1-3.311,1.372v1.825h-3.638v-1.825a9.2,9.2,0,0,1-3.312-1.372L307,119.776l-2.573-2.573,1.291-1.291a9.2,9.2,0,0,1-1.372-3.312h-1.825v-3.638h1.825a9.2,9.2,0,0,1,1.372-3.311l-1.291-1.291L307,101.787l1.291,1.291a9.2,9.2,0,0,1,3.312-1.372V99.88Z" transform="translate(-302.523 -99.88)" fill="#004960" fill-rule="evenodd"/>
          <circle id="Elipse_11873" data-name="Elipse 11873" cx="5.669" cy="5.669" r="5.669" transform="translate(5.233 5.233)" fill="#eff4f7"/>
        </g>
      </g>
      <path id="Trazado_1023107" data-name="Trazado 1023107" d="M52.139,27.813a4.767,4.767,0,1,1,4.767-4.767,4.772,4.772,0,0,1-4.767,4.767Zm0-11.337a6.57,6.57,0,1,0,6.57,6.57A6.577,6.577,0,0,0,52.139,16.476Zm10,7.487V22.128h-.923a.9.9,0,0,1-.885-.726,8.255,8.255,0,0,0-1.238-2.987.9.9,0,0,1,.112-1.138l.655-.654-1.3-1.3-.655.654a.9.9,0,0,1-1.138.113,8.273,8.273,0,0,0-2.988-1.239.9.9,0,0,1-.725-.884v-.924H51.222v.924a.9.9,0,0,1-.726.884,8.267,8.267,0,0,0-2.987,1.239.9.9,0,0,1-1.139-.113l-.654-.654-1.3,1.3.653.654a.9.9,0,0,1,.113,1.138A8.268,8.268,0,0,0,43.948,21.4a.9.9,0,0,1-.884.726H42.14v1.835h.924a.9.9,0,0,1,.884.725,8.255,8.255,0,0,0,1.239,2.988.9.9,0,0,1-.113,1.139l-.653.654,1.3,1.3.654-.654A.9.9,0,0,1,47.509,30,8.263,8.263,0,0,0,50.5,31.237a.9.9,0,0,1,.726.885v.923h1.835v-.923a.9.9,0,0,1,.725-.885A8.259,8.259,0,0,0,56.769,30a.9.9,0,0,1,1.138.113l.654.654,1.3-1.3-.655-.655a.9.9,0,0,1-.112-1.137,8.262,8.262,0,0,0,1.238-2.988.9.9,0,0,1,.885-.725Zm-10.9,31.321V34.848H50.32a.9.9,0,0,1-.9-.9V32.834L49.3,32.8V48.341a.9.9,0,0,1-.264.638l-5.5,5.5a.9.9,0,0,1-.637.265H12.691a.9.9,0,0,1-.9-.9V10.614a.9.9,0,0,1,.9-.9h8.442V7.772H11.245a1.4,1.4,0,0,0-1.4,1.4V55.284a1.4,1.4,0,0,0,1.4,1.4h38.6A1.4,1.4,0,0,0,51.238,55.284ZM46.22,49.243,43.8,51.662V49.243ZM39.052,12.988H22.035a.9.9,0,0,1-.9-.9v-.571h-7.54V52.937H42v-4.6a.9.9,0,0,1,.9-.9h4.6V32.08c-.119-.061-.235-.124-.352-.189l-.788.788a.9.9,0,0,1-1.276,0L42.507,30.1a.9.9,0,0,1,0-1.275l.788-.788a10,10,0,0,1-.944-2.276H41.238a.9.9,0,0,1-.9-.9V21.226a.9.9,0,0,1,.9-.9h1.114a9.99,9.99,0,0,1,.944-2.276l-.788-.788a.9.9,0,0,1,0-1.276l2.573-2.572a.9.9,0,0,1,1.275,0l.788.788c.116-.065.233-.128.352-.189v-2.5H39.954v.571a.9.9,0,0,1-.9.9ZM22.937,7.772h5.416a.9.9,0,0,0,.736-1.422L26.8,3.111a.194.194,0,0,1,.16-.308H34.13a.194.194,0,0,1,.16.308L32,6.35a.9.9,0,0,0,.736,1.422h5.416v3.413H22.937V7.772Zm28.3,1.4v2.075H50.32a.9.9,0,0,0-.9.9v1.113l-.121.035V10.614a.9.9,0,0,0-.9-.9H39.954V7.772h9.889a1.4,1.4,0,0,1,1.4,1.4Zm11.8,11.157H61.926a10.046,10.046,0,0,0-.942-2.276l.788-.788a.9.9,0,0,0,0-1.275L59.2,13.413a.9.9,0,0,0-1.275,0l-.788.788a10.051,10.051,0,0,0-2.275-.944V12.144a.9.9,0,0,0-.9-.9h-.918V9.168a3.2,3.2,0,0,0-3.2-3.2H34.477l1.285-1.817A2,2,0,0,0,34.13,1H26.957a2,2,0,0,0-1.632,3.153L26.61,5.969H11.245a3.2,3.2,0,0,0-3.2,3.2V55.284a3.2,3.2,0,0,0,3.2,3.2h38.6a3.2,3.2,0,0,0,3.2-3.2V34.848h.918a.9.9,0,0,0,.9-.9V32.834a10.091,10.091,0,0,0,2.275-.943l.788.788a.9.9,0,0,0,1.275,0l2.573-2.573a.9.9,0,0,0,0-1.275l-.788-.788a10.061,10.061,0,0,0,.942-2.276H63.04a.9.9,0,0,0,.9-.9V21.227a.9.9,0,0,0-.9-.9ZM30.556,31.355a.23.23,0,0,0,0,.026.078.078,0,0,1-.022,0c0-.008,0-.017,0-.026L29.976,24.4a.583.583,0,0,1,1.136,0Zm-.013,4.153a.271.271,0,1,1,.271-.27A.272.272,0,0,1,30.543,35.509Zm0-13.359a2.278,2.278,0,0,1,2.373,2.283c0,.024,0,.047,0,.072l-.557,6.963a1.733,1.733,0,0,1-1.6,1.705,2.077,2.077,0,1,1-.409,0,1.863,1.863,0,0,1-1-.412,1.7,1.7,0,0,1-.608-1.293l-.557-6.963c0-.025,0-.048,0-.072a2.278,2.278,0,0,1,2.373-2.283Zm5.7-3.018,1.046-1.811a.9.9,0,1,1,1.561.9l-1.046,1.811a.9.9,0,1,1-1.561-.9Zm-6.605-1.286V15.753a.9.9,0,0,1,1.8,0v2.092a.9.9,0,0,1-1.8,0Zm-7.408.376a.9.9,0,1,1,1.561-.9l1.046,1.811a.9.9,0,1,1-1.561.9ZM17.576,31.715H15.484a.9.9,0,1,1,0-1.8h2.092a.9.9,0,0,1,0,1.8Zm-.855-8.883a.9.9,0,0,1,1.232-.329l1.811,1.045a.9.9,0,0,1-.9,1.562l-1.811-1.046a.9.9,0,0,1-.33-1.232ZM38.995,37.853h-16.9V30.061a8.451,8.451,0,1,1,16.9,0Zm-18.617,2.96V39.657H40.709v1.156Zm22.011,2.96H18.7V42.616h23.69ZM30.543,19.805A10.266,10.266,0,0,1,40.8,30.061v7.792h.813a.9.9,0,0,1,.9.9v2.058h.778a.9.9,0,0,1,.9.9v2.96a.9.9,0,0,1-.9.9H17.8a.9.9,0,0,1-.9-.9v-2.96a.9.9,0,0,1,.9-.9h.778V38.755a.9.9,0,0,1,.9-.9h.813V30.061A10.266,10.266,0,0,1,30.543,19.805Z" fill-rule="evenodd"/>
    </g>
  </g>
</svg>
