<svg xmlns="http://www.w3.org/2000/svg" width="46" height="36.142" viewBox="0 0 46 36.142">
  <g id="Layer_1" transform="translate(-4 -9)">
    <g id="Grupo_1166470" data-name="Grupo 1166470" transform="translate(4 9)">
      <path id="Trazado_1022986" data-name="Trazado 1022986" d="M44.25,15.571H35.214V13.107A4.109,4.109,0,0,0,31.107,9H22.893a4.109,4.109,0,0,0-4.107,4.107v2.464H9.75A5.756,5.756,0,0,0,4,21.321V39.393a5.756,5.756,0,0,0,5.75,5.75h34.5A5.756,5.756,0,0,0,50,39.393V21.321A5.756,5.756,0,0,0,44.25,15.571ZM16.625,43.5,5.643,34.086V26.628l10.982-9.413H37.374l10.982,9.413v7.458L37.374,43.5ZM48.357,21.321v3.146L39.9,17.214H44.25A4.109,4.109,0,0,1,48.357,21.321ZM20.428,13.107a2.472,2.472,0,0,1,2.464-2.464h8.214a2.472,2.472,0,0,1,2.464,2.464v2.464H20.428ZM9.75,17.214H14.1L5.643,24.467V21.321A4.109,4.109,0,0,1,9.75,17.214ZM5.643,39.393V36.246L14.1,43.5H9.75a4.109,4.109,0,0,1-4.107-4.107ZM44.25,43.5H39.9l8.461-7.253v3.146A4.109,4.109,0,0,1,44.25,43.5Z" transform="translate(-4 -9)" fill="#0b0a0a"/>
      <path id="Trazado_1022987" data-name="Trazado 1022987" d="M38.25,28.929H34.143V24.821A.824.824,0,0,0,33.321,24H26.75a.824.824,0,0,0-.821.821v4.107H21.821A.824.824,0,0,0,21,29.75v6.571a.824.824,0,0,0,.821.821h4.107V41.25a.824.824,0,0,0,.821.821h6.571a.824.824,0,0,0,.821-.821V37.143H38.25a.824.824,0,0,0,.821-.821V29.75A.824.824,0,0,0,38.25,28.929ZM37.428,35.5H33.321a.824.824,0,0,0-.821.821v4.107H27.571V36.321a.824.824,0,0,0-.821-.821H22.643V30.571H26.75a.824.824,0,0,0,.821-.821V25.643H32.5V29.75a.824.824,0,0,0,.821.821h4.107Z" transform="translate(-7.036 -11.679)" fill="#0b0a0a"/>
    </g>
  </g>
</svg>
