<svg xmlns="http://www.w3.org/2000/svg" xmlns:xlink="http://www.w3.org/1999/xlink" width="108" height="108" viewBox="0 0 108 108">
  <defs>
    <filter id="Trazado_978624" x="0" y="0" width="108" height="108" filterUnits="userSpaceOnUse">
      <feOffset dy="3" input="SourceAlpha"/>
      <feGaussianBlur stdDeviation="3" result="blur"/>
      <feFlood flood-opacity="0.161"/>
      <feComposite operator="in" in2="blur"/>
      <feComposite in="SourceGraphic"/>
    </filter>
  </defs>
  <g id="Grupo_1166625" data-name="Grupo 1166625" transform="translate(-198 -316)">
    <g id="Grupo_1166467" data-name="Grupo 1166467" transform="translate(207 322)">
      <g id="Grupo_1164551" data-name="Grupo 1164551">
        <g id="Grupo_1164479" data-name="Grupo 1164479">
          <g id="Grupo_1144123" data-name="Grupo 1144123">
            <g transform="matrix(1, 0, 0, 1, -9, -6)" filter="url(#Trazado_978624)">
              <g id="Trazado_978624-2" data-name="Trazado 978624" transform="translate(9 6)" fill="#eaf5f4">
                <path d="M 45 88.5 C 39.12687683105469 88.5 33.43022537231445 87.35007476806641 28.06830024719238 85.08217620849609 C 22.88852500915527 82.89131164550781 18.23629951477051 79.75458526611328 14.2408504486084 75.75914764404297 C 10.24541282653809 71.76370239257812 7.108687400817871 67.11147308349609 4.917825222015381 61.93170166015625 C 2.649924993515015 56.56977462768555 1.5 50.87312316894531 1.5 45 C 1.5 39.12687683105469 2.649924993515015 33.43022537231445 4.917825222015381 28.06830024719238 C 7.108687400817871 22.88852500915527 10.24541282653809 18.23629951477051 14.2408504486084 14.2408504486084 C 18.23629951477051 10.24541282653809 22.88852500915527 7.108687400817871 28.06830024719238 4.917825222015381 C 33.43022537231445 2.649924993515015 39.12687683105469 1.5 45 1.5 C 50.87312316894531 1.5 56.56977462768555 2.649924993515015 61.93170166015625 4.917825222015381 C 67.11147308349609 7.108687400817871 71.76370239257812 10.24541282653809 75.75914764404297 14.2408504486084 C 79.75458526611328 18.23629951477051 82.89131164550781 22.88852500915527 85.08217620849609 28.06830024719238 C 87.35007476806641 33.43022537231445 88.5 39.12687683105469 88.5 45 C 88.5 50.87312316894531 87.35007476806641 56.56977462768555 85.08217620849609 61.93170166015625 C 82.89131164550781 67.11147308349609 79.75458526611328 71.76370239257812 75.75914764404297 75.75914764404297 C 71.76370239257812 79.75458526611328 67.11147308349609 82.89131164550781 61.93170166015625 85.08217620849609 C 56.56977462768555 87.35007476806641 50.87312316894531 88.5 45 88.5 Z" stroke="none"/>
                <path d="M 45 3 C 39.32871246337891 3 33.82865524291992 4.110054016113281 28.65262985229492 6.299339294433594 C 23.65165710449219 8.414573669433594 19.15968322753906 11.44334411621094 15.301513671875 15.301513671875 C 11.44334411621094 19.15968322753906 8.414573669433594 23.65165710449219 6.299339294433594 28.65262985229492 C 4.110054016113281 33.82865524291992 3 39.32871246337891 3 45 C 3 50.67128753662109 4.110054016113281 56.17134475708008 6.299339294433594 61.34737396240234 C 8.414573669433594 66.34834289550781 11.44334411621094 70.84031677246094 15.301513671875 74.698486328125 C 19.15968322753906 78.55665588378906 23.65165710449219 81.58542633056641 28.65262985229492 83.70066070556641 C 33.82865524291992 85.88994598388672 39.32871246337891 87 45 87 C 50.67128753662109 87 56.17134475708008 85.88994598388672 61.34737396240234 83.70066070556641 C 66.34834289550781 81.58542633056641 70.84031677246094 78.55665588378906 74.698486328125 74.698486328125 C 78.55665588378906 70.84031677246094 81.58542633056641 66.34834289550781 83.70066070556641 61.34737396240234 C 85.88994598388672 56.17134475708008 87 50.67128753662109 87 45 C 87 39.32871246337891 85.88994598388672 33.82865524291992 83.70066070556641 28.65262985229492 C 81.58542633056641 23.65165710449219 78.55665588378906 19.15968322753906 74.698486328125 15.301513671875 C 70.84031677246094 11.44334411621094 66.34834289550781 8.414573669433594 61.34737396240234 6.299339294433594 C 56.17134475708008 4.110054016113281 50.67128753662109 3 45 3 M 45 0 C 69.85281372070312 0 90 20.14718627929688 90 45 C 90 69.85281372070312 69.85281372070312 90 45 90 C 20.14718627929688 90 0 69.85281372070312 0 45 C 0 20.14718627929688 20.14718627929688 0 45 0 Z" stroke="none" fill="#292584"/>
              </g>
            </g>
          </g>
        </g>
      </g>
    </g>
    <g id="doctor_979993" transform="translate(219.851 291.378)">
      <path id="Trazado_1023149" data-name="Trazado 1023149" d="M423.034,350.9v3.5H413.4v-6.989l.013-.207a2.871,2.871,0,0,0,2.256-.959h3.086A4.483,4.483,0,0,1,423.034,350.9Z" transform="translate(-359.799 -257.882)" fill="#ed664c"/>
      <g id="Grupo_1166618" data-name="Grupo 1166618" transform="translate(47.326 68.242)">
        <path id="Trazado_1023150" data-name="Trazado 1023150" d="M377.551,239.989v3.747a7.106,7.106,0,0,1-1.828,4.81l-2.23,1.543-2.217.441a5.655,5.655,0,0,1-1.984-.35c-.091-.039-.182-.065-.272-.1A6.8,6.8,0,0,1,365,243.724V240.3s3.021.817,5.264-2.451A6.747,6.747,0,0,0,377.551,239.989Z" transform="translate(-365 -231.779)" fill="#fdc75b"/>
        <path id="Trazado_1023151" data-name="Trazado 1023151" d="M370.277,197.109c-2.256,3.267-5.264,2.451-5.264,2.451v-3.384H365v-1.569a2.477,2.477,0,0,1,1.75-2.438l3.734-1.037a2.977,2.977,0,0,1,1.582,0l3.773,1.037a2.492,2.492,0,0,1,1.75,2.438v1.517l-.026.039v3.06A6.73,6.73,0,0,1,370.277,197.109Z" transform="translate(-365 -191.025)" fill="#fdc75b"/>
        <path id="Trazado_1023152" data-name="Trazado 1023152" d="M402.179,332.519v1.647a2.871,2.871,0,0,1-2.256.96,2.906,2.906,0,0,1-2.01-.947l-.013-.013v-1.647l.026-.078a5.966,5.966,0,0,0,1.984.35l2.217-.441.065.143Z" transform="translate(-393.634 -314.026)" fill="#fdc75b"/>
      </g>
      <g id="Grupo_1166619" data-name="Grupo 1166619" transform="translate(24.648 56.446)">
        <path id="Trazado_1023153" data-name="Trazado 1023153" d="M364.413,347.4l-.013.207v6.989h-5.912v-3.877a7,7,0,0,0-1.387-4.188l.272-.078H362.4l.013.013A2.89,2.89,0,0,0,364.413,347.4Z" transform="translate(-335.447 -314.502)" fill="#ed664c"/>
        <path id="Trazado_1023154" data-name="Trazado 1023154" d="M300.136,369.563a2.41,2.41,0,0,1,0,3.423,2.478,2.478,0,0,1-1.712.713,2.377,2.377,0,0,1-1.711-.713,2.42,2.42,0,1,1,3.423-3.423Z" transform="translate(-282.269 -333.998)" fill="#ed664c"/>
        <path id="Trazado_1023155" data-name="Trazado 1023155" d="M207.747,112.368a18.528,18.528,0,0,1-7.261-5.342h-6.9a3.481,3.481,0,0,1-3.488-3.488,3.419,3.419,0,0,1,.324-1.465,3.161,3.161,0,0,1,.7-1,3.469,3.469,0,0,1,2.464-1.024h7.183a6.959,6.959,0,0,1,6.963,6.976v5.342Z" transform="translate(-190.1 -100.05)" fill="#ed664c"/>
      </g>
      <path id="Trazado_1023156" data-name="Trazado 1023156" d="M265.72,202.65v.947a3.76,3.76,0,0,1-7.222,1.465,3.653,3.653,0,0,1-.3-1.465v-.947Z" transform="translate(-224.722 -132.901)" fill="#fdc75b"/>
      <path id="Trazado_1023157" data-name="Trazado 1023157" d="M255.156,330.9a2.429,2.429,0,0,0-2.425,2.425,2.42,2.42,0,0,0,4.136,1.712,2.478,2.478,0,0,0,.713-1.712,2.4,2.4,0,0,0-.713-1.711A2.454,2.454,0,0,0,255.156,330.9Zm-.1-5.653a7,7,0,0,1,7,7v7.637H246.3V328.751l.1-.1.1.1,3.475-3.5Z" transform="translate(-214.365 -239.605)" fill="#ed664c"/>
      <g id="Grupo_1166620" data-name="Grupo 1166620" transform="translate(28.655 69.736)">
        <path id="Trazado_1023158" data-name="Trazado 1023158" d="M227.976,306.8v.091l-3.475,3.5-.1-.1-3.4-3.4v-2.5l.039-.117a9.995,9.995,0,0,0,3.241.532,10.39,10.39,0,0,0,3.6-.648l.091.233V306.8Z" transform="translate(-221 -290.977)" fill="#fdc75b"/>
        <path id="Trazado_1023159" data-name="Trazado 1023159" d="M235.484,203.5a3.7,3.7,0,0,0,.3,1.465l-.3.026H232.4l-.3-.026a3.653,3.653,0,0,0,.3-1.465v-.947h3.086Z" transform="translate(-230.661 -202.55)" fill="#fdc75b"/>
      </g>
      <path id="Trazado_1023160" data-name="Trazado 1023160" d="M135.542,325.163h4.6l3.4,3.4-.1.1V339.8H128.1v-7.637a7.023,7.023,0,0,1,7.015-7.015h.428Z" transform="translate(-111.491 -239.518)" fill="#ed664c"/>
      <path id="Trazado_1023161" data-name="Trazado 1023161" d="M183.833,202.65v.947a3.7,3.7,0,0,1-.3,1.465A3.767,3.767,0,0,1,176.3,203.6v-.947Z" transform="translate(-153.441 -132.901)" fill="#fdc75b"/>
      <path id="Trazado_1023162" data-name="Trazado 1023162" d="M173.67,120.6h1.66v.22a9.381,9.381,0,0,1-8.13,3.527v-4.136s.454-3.345,3.306-4.564a3.485,3.485,0,0,0,3.164,4.953Z" transform="translate(-145.521 -57.181)" fill="#ed664c"/>
      <g id="Grupo_1166621" data-name="Grupo 1166621" transform="translate(21.666 63.422)">
        <path id="Trazado_1023163" data-name="Trazado 1023163" d="M182.672,213.523a3.763,3.763,0,0,0,3.76-3.76l1.258.026-.065,2.58a10.251,10.251,0,0,1-6.664,9.608,10.391,10.391,0,0,1-3.6.648,9.881,9.881,0,0,1-3.241-.532,10.264,10.264,0,0,1-7.015-9.737V209.75h1.193a3.767,3.767,0,0,0,7.235,1.465l.3.026h3.086l.3-.026A3.751,3.751,0,0,0,182.672,213.523Z" transform="translate(-167.1 -202.502)" fill="#fdc75b"/>
        <path id="Trazado_1023164" data-name="Trazado 1023164" d="M167.1,161.111V157.6a9.381,9.381,0,0,0,8.13-3.527v-.22h5.238a18.626,18.626,0,0,0,7.261,5.342l-.013.415-.039,1.53-1.258-.026v-.947H168.28v.947Z" transform="translate(-167.1 -153.85)" fill="#fdc75b"/>
      </g>
      <path id="Trazado_1023165" data-name="Trazado 1023165" d="M46.8,62.936v3.241H41.615v5.173H38.386V66.178H33.2V62.936h5.186V57.75h3.229v5.186Z" transform="translate(-28.895 -6.789)" fill="#ed664c"/>
      <g id="Grupo_1166622" data-name="Grupo 1166622" transform="translate(4.175 70.618)">
        <path id="Trazado_1023166" data-name="Trazado 1023166" d="M77.244,212.682v1.686l-.026.039v2.243c-4.564,2.308-7.326-1.971-7.326-1.971a3.139,3.139,0,0,0-.493-.026l1.491-.959v-2.425l.065-1.919a4.29,4.29,0,0,1,.713.091l3.8.972A2.33,2.33,0,0,1,77.244,212.682Z" transform="translate(-64.577 -209.35)" fill="#fdc75b"/>
        <path id="Trazado_1023167" data-name="Trazado 1023167" d="M44.842,253.7v2.528a6.279,6.279,0,0,1-1.854,4.473l-2.243,1.439a6.305,6.305,0,0,1-2.23.4,6.379,6.379,0,0,1-2-.324,6.3,6.3,0,0,1-4.318-5.99v-3.773a7.593,7.593,0,0,1,4.823-2.308c.169,0,.324.013.493.026,0,0,2.762,4.279,7.326,1.971Z" transform="translate(-32.2 -244.86)" fill="#fdc75b"/>
      </g>
      <g id="Grupo_1166623" data-name="Grupo 1166623" transform="translate(1.076 89.587)">
        <path id="Trazado_1023168" data-name="Trazado 1023168" d="M81.13,357.9l2.139-2.152h4.408l.1.052a6.892,6.892,0,0,0-.687,3.021V362.7H81v-4.784l.065-.065Z" transform="translate(-71.574 -355.737)" fill="#ed664c"/>
        <path id="Trazado_1023169" data-name="Trazado 1023169" d="M17.791,357.738l-.065.065v4.784H8.3v-2.619a4.316,4.316,0,0,1,4.318-4.318H15.7Z" transform="translate(-8.3 -355.65)" fill="#ed664c"/>
      </g>
      <g id="Grupo_1166624" data-name="Grupo 1166624" transform="translate(4.175 70.615)">
        <path id="Trazado_1023170" data-name="Trazado 1023170" d="M38.527,212.458v1.219l-1.491.959a7.593,7.593,0,0,0-4.823,2.308V214.39H32.2v-1.724a2.355,2.355,0,0,1,1.763-2.269l3.76-.972a3.342,3.342,0,0,1,.882-.091l-.078,1.919Z" transform="translate(-32.2 -209.331)" fill="#fdc75b"/>
        <path id="Trazado_1023171" data-name="Trazado 1023171" d="M67.488,346.423,65.4,344.336v-1.53l.026-.078a6.352,6.352,0,0,0,4.227-.078l.052.156v1.53L67.552,346.5Z" transform="translate(-61.095 -325.364)" fill="#fdc75b"/>
      </g>
      <path id="Trazado_1023172" data-name="Trazado 1023172" d="M1.076,134.35H15.559V137.1a1.03,1.03,0,0,0,1.05,1.011H47.689a1.03,1.03,0,0,0,1.05-1.011V134.35H63.222a1.044,1.044,0,0,0,1.076-1.011v-3.5a5.588,5.588,0,0,0-5.355-5.731h-.311a7.508,7.508,0,0,0,4.3-3.669,8.591,8.591,0,0,0-.246-8.972,6.475,6.475,0,0,0-1.776-1.828v-.985a3.518,3.518,0,0,0-2.515-3.436l-3.773-1.037a4,4,0,0,0-2.139,0l-3.734,1.037a3.518,3.518,0,0,0-2.5,3.436v.959a7.038,7.038,0,0,0-1.828,1.88,8.591,8.591,0,0,0-.246,8.972,7.548,7.548,0,0,0,4.3,3.669h-1.8a8.17,8.17,0,0,0-6.042-2.723H36.694V120.4a11.408,11.408,0,0,0,6.509-9.232,3.09,3.09,0,0,0,2.01-.895,3.055,3.055,0,0,0,.882-2.191,3.114,3.114,0,0,0-2.788-3.073v-4.746a7.977,7.977,0,0,0-7.987-8.013H28.136a4.47,4.47,0,0,0-3.2,1.335,4.6,4.6,0,0,0-.726.947,7.317,7.317,0,0,0-3.579,5.212c0,.052-.013.091-.013.143v5.134a2.968,2.968,0,0,0-1.958.895,3.059,3.059,0,0,0-.895,2.178,3.1,3.1,0,0,0,2.93,3.086,11.2,11.2,0,0,0,3.267,6.963,11.933,11.933,0,0,0,3.669,2.438v.843H23.637a8.034,8.034,0,0,0-6.911,4.019H13.874v-.156l1.686-1.1a.814.814,0,0,0,.156-.143,7.335,7.335,0,0,0,2.088-4.214,2.319,2.319,0,0,0,1.854-2.256,2.245,2.245,0,0,0-1.75-2.23v-4.551a3.383,3.383,0,0,0-2.554-3.267l-3.812-1a4.4,4.4,0,0,0-.959-.13,4.323,4.323,0,0,0-1.141.117H9.413l-3.76.972a3.386,3.386,0,0,0-2.541,3.28v1.491c0,.078-.039.156-.039.233,0,.1.039.194.039.285V115.3a2.266,2.266,0,0,0-1.75,2.23A2.333,2.333,0,0,0,3.2,119.8a7.5,7.5,0,0,0,3.981,5.588h-1.8A5.373,5.373,0,0,0,0,130.72v2.619A1.036,1.036,0,0,0,1.076,134.35ZM60.94,112.516c0,.026.039.065.052.091a6.634,6.634,0,0,1,.506.947,4.351,4.351,0,0,0-.558-.233Zm-.078,5.472a2.251,2.251,0,0,0,1.037-.558,7.148,7.148,0,0,1-.739,2,6.318,6.318,0,0,1-1.284,1.608A8.029,8.029,0,0,0,60.862,117.987Zm-8.156,6.807a6.954,6.954,0,0,0,.908.065,1.135,1.135,0,0,0,.207-.026l1.024-.207v.117a1.806,1.806,0,0,1-2.139.052Zm6.25,1.387a3.522,3.522,0,0,1,3.28,3.656v2.438h-7.65v-5.2a3.064,3.064,0,0,0,1.7-.895Zm-4.149-18.8h-.22v-.272a1,1,0,0,0-.752-1,1.667,1.667,0,0,1,.246.052l3.786,1.037a1.452,1.452,0,0,1,1,1.439v3.8a5.711,5.711,0,0,1-5.251-1.66,1,1,0,0,0,.972-1.037v-.285h.22a1.037,1.037,0,1,0,0-2.075Zm-6.444,2.827v-1.569a1.442,1.442,0,0,1,.985-1.439l3.734-1.037a1.1,1.1,0,0,1,.285-.052,1.065,1.065,0,0,0-.843,1.011v.272h-.1a1.037,1.037,0,0,0,0,2.075h.1v.272a.959.959,0,0,0,.1.376H52.59a1.018,1.018,0,0,0-.843.454,4.229,4.229,0,0,1-3.371,2.088v-2.451h-.013Zm-2.178,2.4c.039-.052.1-.1.1-.156v.869a1.6,1.6,0,0,0-.622.272A5.965,5.965,0,0,1,46.185,112.606Zm-.169,6.833a6.743,6.743,0,0,1-.752-2.049,2.2,2.2,0,0,0,1.089.6,8.211,8.211,0,0,0,1.011,3.125A6.419,6.419,0,0,1,46.016,119.44Zm2.347-2.425V114.72a5.989,5.989,0,0,0,4.318-2.01,7.777,7.777,0,0,0,6.185,1.815V117a6.084,6.084,0,0,1-1.5,4.032L55.4,122.4l-1.893.376a4.769,4.769,0,0,1-1.53-.285l-.052-.013a.479.479,0,0,1-.143-.065c-.013,0-.026-.013-.039-.013A5.8,5.8,0,0,1,48.363,117.015Zm2.814,9.167a4.479,4.479,0,0,0,1.335.83v5.264h-3.76v-2.814a8.191,8.191,0,0,0-.7-3.28Zm-7.87-19.1a1,1,0,0,1,.726.972,1.02,1.02,0,0,1-.3.726,1.1,1.1,0,0,1-.48.272Zm-22.69,1.971a1.091,1.091,0,0,1-.791-1,.943.943,0,0,1,.3-.713,1.257,1.257,0,0,1,.493-.272Zm20.175,20.1a1.387,1.387,0,1,1,0,2.775,1.352,1.352,0,0,1-.972-.4,1.394,1.394,0,0,1,.972-2.373Zm-.985-5.692v3.773a3.474,3.474,0,0,0-1.452,5.757,3.393,3.393,0,0,0,2.438,1.024A3.486,3.486,0,0,0,43.241,133a3.507,3.507,0,0,0,.026-4.9,3.456,3.456,0,0,0-1.387-.856v-3.63a5.918,5.918,0,0,1,4.8,5.861v6.561H32.933V126.61l3.125-3.151ZM32.168,124.5l-2.476-2.464v-.843a11.27,11.27,0,0,0,2.256.22,11.82,11.82,0,0,0,2.671-.311v.947Zm-6.25-28.771v-.013a2.367,2.367,0,0,1,.493-.7,2.451,2.451,0,0,1,1.737-.713h7.183a5.877,5.877,0,0,1,5.3,3.293,6.051,6.051,0,0,1,.609,2.658v3.708a17.179,17.179,0,0,1-5.407-4.37,1.023,1.023,0,0,0-.778-.376h-6.9a2.46,2.46,0,0,1-2.451-2.464A2.138,2.138,0,0,1,25.919,95.725Zm-3.229,4.2a7.847,7.847,0,0,1,1-2.321,4.548,4.548,0,0,0,3.8,3.63A8.291,8.291,0,0,1,22.69,103Zm0,5.134a10.948,10.948,0,0,0,7.78-3.773h4.084a21.977,21.977,0,0,0,5.264,4.279H22.859c-.052,0-.052-.039-.182-.026v-.48Zm17.271,2.58a2.735,2.735,0,0,1-2.723,2.606,2.687,2.687,0,0,1-2.5-1.66,2.72,2.72,0,0,1-.207-.947Zm-7.494.259h-1.05a1.737,1.737,0,0,0,.013-.259h1.011Zm-3.112-.259a2.9,2.9,0,0,1-.207.934v-.013a2.723,2.723,0,0,1-5.238-.921Zm-3.942,9a9.151,9.151,0,0,1-2.7-6.366,4.792,4.792,0,0,0,8-.3h2.438a4.784,4.784,0,0,0,8,.285,9.219,9.219,0,0,1-9.232,9.076,8.881,8.881,0,0,1-2.917-.48A9.429,9.429,0,0,1,25.413,116.639Zm-7.78,12.823a5.855,5.855,0,0,1,.622-2.567,6.023,6.023,0,0,1,4.823-3.371v.661a3.77,3.77,0,0,0-1.88,1.089,4.16,4.16,0,0,0-1.232,2.956v4.408a1.012,1.012,0,0,0,.985,1.063H22.2a1.037,1.037,0,1,0,0-2.075h-.156v-3.4a2.036,2.036,0,0,1,.583-1.465,1.968,1.968,0,0,1,1.426-.583h.039a2.048,2.048,0,0,1,2.1,2.049v3.4H25.66a1.037,1.037,0,1,0,0,2.075h1.569a1.063,1.063,0,0,0,1.037-1.063V128.23a4.142,4.142,0,0,0-3.112-4.058v-.713h3.073l2.632,2.723v9.854H17.634ZM9.647,126.1a6.318,6.318,0,0,0,.856.052,6.816,6.816,0,0,0,1.154-.091l-1.024,1.024Zm6.185,1.374a7.79,7.79,0,0,0-.272,1.984v2.814H11.54v-3.151l1.673-1.647Zm-4.11-17.893H11.54v-.233a1.007,1.007,0,0,0-.337-.765l3.63.921a1.3,1.3,0,0,1,1,1.258v3.293a4.139,4.139,0,0,1-3.76-.3,5.688,5.688,0,0,1-1.232-1,1.037,1.037,0,0,0,.7-.985v-.117h.182a1.037,1.037,0,0,0,0-2.075Zm-6.535,2.9v-1.724a1.3,1.3,0,0,1,.985-1.258l3.643-.934a1.029,1.029,0,0,0-.35.791v.233H9.284a1.037,1.037,0,0,0,0,2.075h.182v.052c-.13-.013-.311-.013-.48-.013a7.527,7.527,0,0,0-3.8,1.193Zm0,6.314v-3.319a6.532,6.532,0,0,1,3.747-1.712,8.113,8.113,0,0,0,1.945,1.724,6.265,6.265,0,0,0,3.293.959,6.789,6.789,0,0,0,1.647-.22V118.8a5.271,5.271,0,0,1-1.491,3.656l-2.062,1.323a5.358,5.358,0,0,1-3.449.026A5.267,5.267,0,0,1,5.186,118.8ZM2.075,130.72a3.282,3.282,0,0,1,3.306-3.241H8.039l1.426,1.374v3.423H2.075Z" transform="translate(0 -36.815)"/>
      <path id="Trazado_1023173" data-name="Trazado 1023173" d="M381.149,267.173v-.285a2.319,2.319,0,0,1-3.112-1.037A1.04,1.04,0,0,0,377,266.887v.285a2.078,2.078,0,1,0,4.149,0Zm-2.075,0c0,.052.013.091,0,.1C379.062,267.263,379.075,267.224,379.075,267.173Z" transform="translate(-328.119 -187.907)"/>
      <path id="Trazado_1023174" data-name="Trazado 1023174" d="M420.075,269.277a2.128,2.128,0,0,0,2.075-2.2v-.285a2.319,2.319,0,0,1-3.112-1.037A1.04,1.04,0,0,0,418,266.787v.285A2.128,2.128,0,0,0,420.075,269.277Zm0-2.191c0,.052.013.091,0,.117C420.062,267.176,420.075,267.137,420.075,267.085Z" transform="translate(-363.803 -187.82)"/>
      <path id="Trazado_1023175" data-name="Trazado 1023175" d="M48.279,280.56v-.272a1.037,1.037,0,1,0-2.075,0v.272c0,.026-.039.039-.065.039s-.065-.013-.065-.039v-.272a1.037,1.037,0,1,0-2.075,0v.272a2.14,2.14,0,0,0,4.279,0Z" transform="translate(-38.295 -199.569)"/>
      <path id="Trazado_1023176" data-name="Trazado 1023176" d="M87.139,282.673a2.136,2.136,0,0,0,2.139-2.113v-.272a1.037,1.037,0,1,0-2.075,0v.272c0,.026-.039.039-.065.039s-.065-.013-.065-.039v-.272a1.037,1.037,0,1,0-2.075,0v.272A2.136,2.136,0,0,0,87.139,282.673Z" transform="translate(-73.979 -199.569)"/>
      <path id="Trazado_1023177" data-name="Trazado 1023177" d="M263.037,367.95a1.037,1.037,0,1,0,0,2.075h.869a1.037,1.037,0,0,0,0-2.075Z" transform="translate(-228.029 -276.768)"/>
      <path id="Trazado_1023178" data-name="Trazado 1023178" d="M263.906,387.95h-.869a1.037,1.037,0,1,0,0,2.075h.869a1.037,1.037,0,0,0,0-2.075Z" transform="translate(-228.029 -294.175)"/>
      <path id="Trazado_1023179" data-name="Trazado 1023179" d="M31.25,65.639h3.241a1.063,1.063,0,0,0,1.024-1.076v-4.11h4.162A1.052,1.052,0,0,0,40.7,59.389V56.148a1.007,1.007,0,0,0-1.024-1.011H35.5V50.961a1,1,0,0,0-1.024-1.011H31.237a1.041,1.041,0,0,0-1.063,1.011v4.175h-4.11A1.041,1.041,0,0,0,25,56.148v3.241a1.085,1.085,0,0,0,1.063,1.063h4.123v4.11A1.088,1.088,0,0,0,31.25,65.639Zm-4.175-7.261V57.211H31.25a1.041,1.041,0,0,0,1.011-1.063V52.025h1.167v4.123a1.074,1.074,0,0,0,1.05,1.063h4.136v1.167H34.478a1.021,1.021,0,0,0-1.05,1.011v4.175H32.261V59.389a1,1,0,0,0-1.011-1.011Z" transform="translate(-21.759)"/>
    </g>
  </g>
</svg>
