<svg xmlns="http://www.w3.org/2000/svg" xmlns:xlink="http://www.w3.org/1999/xlink" width="108" height="108" viewBox="0 0 108 108">
  <defs>
    <filter id="Trazado_982547" x="0" y="0" width="108" height="108" filterUnits="userSpaceOnUse">
      <feOffset dy="3" input="SourceAlpha"/>
      <feGaussianBlur stdDeviation="3" result="blur"/>
      <feFlood flood-opacity="0.161"/>
      <feComposite operator="in" in2="blur"/>
      <feComposite in="SourceGraphic"/>
    </filter>
  </defs>
  <g id="Grupo_1168318" data-name="Grupo 1168318" transform="translate(-166 -2121)">
    <g id="Grupo_1166483" data-name="Grupo 1166483" transform="translate(0 -328)">
      <g id="Grupo_1166229" data-name="Grupo 1166229">
        <g id="Grupo_1164717" data-name="Grupo 1164717" transform="translate(-5 -1469)">
          <g id="Grupo_1161419" data-name="Grupo 1161419" transform="translate(0 -5495)">
            <g id="Grupo_1160581" data-name="Grupo 1160581" transform="translate(0 7864)">
              <g id="Grupo_1153955" data-name="Grupo 1153955" transform="translate(-83 1036)">
                <g id="Grupo_1149598" data-name="Grupo 1149598" transform="translate(80 315)">
                  <g id="Grupo_1148770" data-name="Grupo 1148770" transform="translate(-27 -2583)">
                    <g id="Grupo_1146954" data-name="Grupo 1146954" transform="translate(-415 -1202)">
                      <g transform="matrix(1, 0, 0, 1, 616, 3983)" filter="url(#Trazado_982547)">
                        <g id="Trazado_982547-2" data-name="Trazado 982547" transform="translate(9 6)" fill="#fef7ea">
                          <path d="M 45 88.5 C 39.12687683105469 88.5 33.43022537231445 87.35007476806641 28.06830024719238 85.08217620849609 C 22.88852500915527 82.89131164550781 18.23629951477051 79.75458526611328 14.2408504486084 75.75914764404297 C 10.24541282653809 71.76370239257812 7.108687400817871 67.11147308349609 4.917825222015381 61.93170166015625 C 2.649924993515015 56.56977462768555 1.5 50.87312316894531 1.5 45 C 1.5 39.12687683105469 2.649924993515015 33.43022537231445 4.917825222015381 28.06830024719238 C 7.108687400817871 22.88852500915527 10.24541282653809 18.23629951477051 14.2408504486084 14.2408504486084 C 18.23629951477051 10.24541282653809 22.88852500915527 7.108687400817871 28.06830024719238 4.917825222015381 C 33.43022537231445 2.649924993515015 39.12687683105469 1.5 45 1.5 C 50.87312316894531 1.5 56.56977462768555 2.649924993515015 61.93170166015625 4.917825222015381 C 67.11147308349609 7.108687400817871 71.76370239257812 10.24541282653809 75.75914764404297 14.2408504486084 C 79.75458526611328 18.23629951477051 82.89131164550781 22.88852500915527 85.08217620849609 28.06830024719238 C 87.35007476806641 33.43022537231445 88.5 39.12687683105469 88.5 45 C 88.5 50.87312316894531 87.35007476806641 56.56977462768555 85.08217620849609 61.93170166015625 C 82.89131164550781 67.11147308349609 79.75458526611328 71.76370239257812 75.75914764404297 75.75914764404297 C 71.76370239257812 79.75458526611328 67.11147308349609 82.89131164550781 61.93170166015625 85.08217620849609 C 56.56977462768555 87.35007476806641 50.87312316894531 88.5 45 88.5 Z" stroke="none"/>
                          <path d="M 45 3 C 39.32871246337891 3 33.82865524291992 4.110054016113281 28.65262985229492 6.299339294433594 C 23.65165710449219 8.414573669433594 19.15968322753906 11.44334411621094 15.301513671875 15.301513671875 C 11.44334411621094 19.15968322753906 8.414573669433594 23.65165710449219 6.299339294433594 28.65262985229492 C 4.110054016113281 33.82865524291992 3 39.32871246337891 3 45 C 3 50.67128753662109 4.110054016113281 56.17134475708008 6.299339294433594 61.34737396240234 C 8.414573669433594 66.34834289550781 11.44334411621094 70.84031677246094 15.301513671875 74.698486328125 C 19.15968322753906 78.55665588378906 23.65165710449219 81.58542633056641 28.65262985229492 83.70066070556641 C 33.82865524291992 85.88994598388672 39.32871246337891 87 45 87 C 50.67128753662109 87 56.17134475708008 85.88994598388672 61.34737396240234 83.70066070556641 C 66.34834289550781 81.58542633056641 70.84031677246094 78.55665588378906 74.698486328125 74.698486328125 C 78.55665588378906 70.84031677246094 81.58542633056641 66.34834289550781 83.70066070556641 61.34737396240234 C 85.88994598388672 56.17134475708008 87 50.67128753662109 87 45 C 87 39.32871246337891 85.88994598388672 33.82865524291992 83.70066070556641 28.65262985229492 C 81.58542633056641 23.65165710449219 78.55665588378906 19.15968322753906 74.698486328125 15.301513671875 C 70.84031677246094 11.44334411621094 66.34834289550781 8.414573669433594 61.34737396240234 6.299339294433594 C 56.17134475708008 4.110054016113281 50.67128753662109 3 45 3 M 45 0 C 69.85281372070312 0 90 20.14718627929688 90 45 C 90 69.85281372070312 69.85281372070312 90 45 90 C 20.14718627929688 90 0 69.85281372070312 0 45 C 0 20.14718627929688 20.14718627929688 0 45 0 Z" stroke="none" fill="#e44b36"/>
                        </g>
                      </g>
                    </g>
                  </g>
                </g>
              </g>
            </g>
          </g>
        </g>
      </g>
    </g>
    <g id="gas-mask_2646794" transform="translate(162.958 2125.673)">
      <path id="Trazado_1023826" data-name="Trazado 1023826" d="M137.1,62.827V42.276l-3.083-3.083-1.028-4.11L123.745,32l-3.083,3.083h-8.221L109.358,32l-9.248,3.083-1.028,4.11L96,42.276V62.827L111.414,80.3h10.276Z" transform="translate(-59.511 -13.945)" fill="#deb55b"/>
      <path id="Trazado_1023827" data-name="Trazado 1023827" d="M138.055,31.193h5.138L141.138,24H136Z" transform="translate(-94.373 -6.972)" fill="#cc9e41"/>
      <path id="Trazado_1023828" data-name="Trazado 1023828" d="M198.386,261.579l4.11-12.331-5.931-7.626A4.2,4.2,0,0,0,193.248,240h0a4.2,4.2,0,0,0-3.317,1.622L184,249.248l4.11,12.331Z" transform="translate(-136.207 -195.228)" fill="#e6c06c"/>
      <path id="Trazado_1023829" data-name="Trazado 1023829" d="M325.138,31.193H320L322.055,24h5.138Z" transform="translate(-254.738 -6.972)" fill="#cc9e41"/>
      <path id="Trazado_1023830" data-name="Trazado 1023830" d="M137.1,112H96v12.331l3.2,4.793a3.083,3.083,0,0,0,2.565,1.373h4.921a3.083,3.083,0,0,0,2.565-1.373l4.11-6.165a3.84,3.84,0,0,1,3.2-1.71h0a3.84,3.84,0,0,1,3.2,1.71l4.11,6.165a3.083,3.083,0,0,0,2.565,1.373h4.921a3.083,3.083,0,0,0,2.565-1.373l3.2-4.793Z" transform="translate(-59.511 -83.669)" fill="#9ce6ed"/>
      <path id="Trazado_1023831" data-name="Trazado 1023831" d="M319.158,282.086A7.5,7.5,0,0,1,317.326,287l-9.146,10.553a6.361,6.361,0,0,1-8.784.8l-.515-.412-2.88-2.3v-6.165L311.414,272l5.125,4.393A7.506,7.506,0,0,1,319.158,282.086Z" transform="translate(-233.821 -223.118)" fill="#d3aa4f"/>
      <path id="Trazado_1023832" data-name="Trazado 1023832" d="M316.539,276.393,298.88,297.937l-2.88-2.3v-6.165L311.414,272Z" transform="translate(-233.821 -223.118)" fill="#cc9e41"/>
      <path id="Trazado_1023833" data-name="Trazado 1023833" d="M35.71,282.086A7.5,7.5,0,0,0,37.542,287l9.146,10.553a6.361,6.361,0,0,0,8.784.8l.515-.412,2.88-2.3v-6.165L43.454,272l-5.125,4.393A7.506,7.506,0,0,0,35.71,282.086Z" transform="translate(-6.965 -223.118)" fill="#d3aa4f"/>
      <path id="Trazado_1023834" data-name="Trazado 1023834" d="M56.1,276.393l17.659,21.544,2.88-2.3v-6.165L61.225,272Z" transform="translate(-24.736 -223.118)" fill="#cc9e41"/>
      <path id="Trazado_1023835" data-name="Trazado 1023835" d="M226.276,411.083,224.9,412a6.788,6.788,0,0,1-3.765,1.14h0a6.788,6.788,0,0,1-3.765-1.14L216,411.083V408h10.276Z" transform="translate(-164.097 -341.649)" fill="#c48e2d"/>
      <path id="Trazado_1023836" data-name="Trazado 1023836" d="M39.6,20.889l-.959,3.834L35.763,27.6a1.028,1.028,0,0,0-.3.727V48.41L30.7,52.495A8.525,8.525,0,0,0,29.8,64.551L38.948,75.1a7.391,7.391,0,0,0,10.2.931l3.395-2.716a1.028,1.028,0,0,0,.386-.8V71.348a7.813,7.813,0,0,0,8.221,0v1.169a1.028,1.028,0,0,0,.386.8l3.395,2.716a7.391,7.391,0,0,0,10.2-.931L84.28,64.551a8.525,8.525,0,0,0-.894-12.056L78.62,48.41V28.331a1.028,1.028,0,0,0-.3-.727l-2.882-2.881-.959-3.834a1.027,1.027,0,0,0-.672-.726L72.73,19.8l.713-2.494A1.028,1.028,0,0,0,72.455,16H67.317a1.028,1.028,0,0,0-.988.745l-.241.844-1.528-.509a1.028,1.028,0,0,0-1.052.248L60.726,20.11H53.356l-2.782-2.782a1.028,1.028,0,0,0-1.052-.248l-1.528.509-.241-.845A1.028,1.028,0,0,0,46.765,16H41.627a1.028,1.028,0,0,0-.988,1.31l.713,2.494-1.077.359a1.027,1.027,0,0,0-.672.726ZM76.565,48.494,64.752,61.882l2.512-7.537a1.028,1.028,0,0,0-.164-.956l-5.931-7.626a5.23,5.23,0,0,0-8.256,0l-5.931,7.626a1.028,1.028,0,0,0-.164.956l2.512,7.537L37.517,48.494V44.056l1.313,1.969a4.1,4.1,0,0,0,3.42,1.83H47.17a4.1,4.1,0,0,0,3.42-1.83l4.11-6.165a2.812,2.812,0,0,1,4.68,0l4.11,6.165a4.1,4.1,0,0,0,3.42,1.83h4.921a4.1,4.1,0,0,0,3.42-1.83l1.313-1.969ZM56.013,54.02v11.3H53.958V57.1H51.9v6l-2.962-8.885,5.594-7.192a3.175,3.175,0,0,1,5.012,0l5.594,7.192L62.179,63.1v-6H60.124v8.221H58.068V54.02Zm20.552-13.67-3.023,4.534a2.051,2.051,0,0,1-1.71.915H66.911a2.051,2.051,0,0,1-1.71-.915l-4.11-6.165a4.868,4.868,0,0,0-8.1,0l-4.11,6.165a2.051,2.051,0,0,1-1.71.915H42.25a2.051,2.051,0,0,1-1.71-.915l-3.023-4.534V29.358H76.565ZM40.5,73.758,31.355,63.205a6.467,6.467,0,0,1-.063-8.4L47.56,74.656a5.333,5.333,0,0,1-7.06-.9Zm10.375-1.735-1.7,1.361L32.8,53.4l3.592-3.079L50.875,66.74Zm9.361-2.529a5.76,5.76,0,0,1-6.39,0l-.915-.61V67.379h8.221v1.505Zm2.97-2.754L77.693,50.322,81.285,53.4,64.907,73.383l-1.7-1.361ZM84.22,57.9a6.45,6.45,0,0,1-1.493,5.3L73.581,73.758a5.333,5.333,0,0,1-7.06.9L82.79,54.807a6.481,6.481,0,0,1,1.429,3.1ZM68.092,18.055h3l-1.468,5.138h-3Zm-22.1,0,1.468,5.138h-3l-1.468-5.138ZM40.569,25.5l.891-3.563.457-.152.777,2.721a1.028,1.028,0,0,0,.988.745H48.82a1.028,1.028,0,0,0,.988-1.31L48.56,19.568l1.011-.337L52.2,21.864a1.028,1.028,0,0,0,.727.3h8.221a1.028,1.028,0,0,0,.727-.3l2.634-2.634,1.011.337-1.249,4.371a1.028,1.028,0,0,0,.988,1.31H70.4a1.028,1.028,0,0,0,.988-.745l.777-2.721.457.152.891,3.563a1.028,1.028,0,0,0,.27.477L75.112,27.3H38.97L40.3,25.975A1.028,1.028,0,0,0,40.569,25.5Z" transform="translate(0 0)"/>
      <rect id="Rectángulo_414184" data-name="Rectángulo 414184" width="2.055" height="2.055" transform="translate(56.013 49.91)"/>
      <rect id="Rectángulo_414185" data-name="Rectángulo 414185" width="2.055" height="2.055" transform="translate(51.903 52.993)"/>
      <rect id="Rectángulo_414186" data-name="Rectángulo 414186" width="2.055" height="2.055" transform="translate(60.124 52.993)"/>
    </g>
  </g>
</svg>
